<svg width="30" height="30" viewBox="0 0 30 30" fill="none" xmlns="http://www.w3.org/2000/svg">
<path opacity="0.4" d="M27.5 11.25V18.75C27.5 23.125 25 25 21.25 25H10.5625C11 24.2625 11.25 23.4125 11.25 22.5C11.25 19.7375 9.0125 17.5 6.25 17.5C4.75 17.5 3.4125 18.1625 2.5 19.2V11.25C2.5 6.875 5 5 8.75 5H21.25C25 5 27.5 6.875 27.5 11.25Z" fill="#2667FF"/>
<path d="M15 18.125C16.7259 18.125 18.125 16.7259 18.125 15C18.125 13.2741 16.7259 11.875 15 11.875C13.2741 11.875 11.875 13.2741 11.875 15C11.875 16.7259 13.2741 18.125 15 18.125Z" fill="#2667FF"/>
<path d="M23.125 18.4375C22.6125 18.4375 22.1875 18.0125 22.1875 17.5V12.5C22.1875 11.9875 22.6125 11.5625 23.125 11.5625C23.6375 11.5625 24.0625 11.9875 24.0625 12.5V17.5C24.0625 18.0125 23.6375 18.4375 23.125 18.4375Z" fill="#2667FF"/>
<path d="M6.25 17.5C3.4875 17.5 1.25 19.7375 1.25 22.5C1.25 23.4375 1.51249 24.325 1.97499 25.075C2.83749 26.525 4.425 27.5 6.25 27.5C8.075 27.5 9.66251 26.525 10.525 25.075C10.9875 24.325 11.25 23.4375 11.25 22.5C11.25 19.7375 9.0125 17.5 6.25 17.5ZM8.11249 23.4125H7.1875V24.3875C7.1875 24.9 6.7625 25.325 6.25 25.325C5.7375 25.325 5.3125 24.9 5.3125 24.3875V23.4125H4.38751C3.87501 23.4125 3.45001 22.9875 3.45001 22.475C3.45001 21.9625 3.87501 21.5375 4.38751 21.5375H5.3125V20.65C5.3125 20.1375 5.7375 19.7125 6.25 19.7125C6.7625 19.7125 7.1875 20.1375 7.1875 20.65V21.5375H8.11249C8.62499 21.5375 9.04999 21.9625 9.04999 22.475C9.04999 22.9875 8.63749 23.4125 8.11249 23.4125Z" fill="#2667FF"/>
</svg>
