<svg width="40" height="40" viewBox="0 0 40 40" fill="none" xmlns="http://www.w3.org/2000/svg">
<path d="M31.6663 31.6666H8.33301C7.85467 31.6666 7.45801 31.27 7.45801 30.7916C7.45801 30.3133 7.85467 29.9166 8.33301 29.9166H31.6663C32.1447 29.9166 32.5413 30.3133 32.5413 30.7916C32.5413 31.27 32.1447 31.6666 31.6663 31.6666Z" fill="#848588"/>
<path d="M17.375 10.6667V31.6667H22.625V10.6667C22.625 9.38337 22.1 8.33337 20.525 8.33337H19.475C17.9 8.33337 17.375 9.38337 17.375 10.6667Z" fill="#848588"/>
<path opacity="0.4" d="M9.5 17.6667V31.6667H14.1667V17.6667C14.1667 16.3834 13.7 15.3334 12.3 15.3334H11.3667C9.96667 15.3334 9.5 16.3834 9.5 17.6667Z" fill="#848588"/>
<path opacity="0.4" d="M25.833 23.5V31.6666H30.4997V23.5C30.4997 22.2166 30.033 21.1666 28.633 21.1666H27.6997C26.2997 21.1666 25.833 22.2166 25.833 23.5Z" fill="#848588"/>
</svg>
