<svg width="40" height="40" viewBox="0 0 40 40" fill="none" xmlns="http://www.w3.org/2000/svg">
<path opacity="0.4" d="M31.6663 16.5V25.2033C31.6663 27.875 29.4963 30.0333 26.8247 30.0333H13.1747C10.503 30.0333 8.33301 27.875 8.33301 25.2033V16.5H31.6663Z" fill="#848588"/>
<path d="M31.6663 14.7966V16.4999H8.33301V14.7966C8.33301 12.1249 10.503 9.96655 13.1747 9.96655H26.8247C29.4963 9.96655 31.6663 12.1249 31.6663 14.7966Z" fill="#848588"/>
<path d="M15.3333 26.125H13C12.5217 26.125 12.125 25.7283 12.125 25.25C12.125 24.7717 12.5217 24.375 13 24.375H15.3333C15.8117 24.375 16.2083 24.7717 16.2083 25.25C16.2083 25.7283 15.8117 26.125 15.3333 26.125Z" fill="#848588"/>
<path d="M22.9167 26.125H18.25C17.7717 26.125 17.375 25.7283 17.375 25.25C17.375 24.7717 17.7717 24.375 18.25 24.375H22.9167C23.395 24.375 23.7917 24.7717 23.7917 25.25C23.7917 25.7283 23.395 26.125 22.9167 26.125Z" fill="#848588"/>
</svg>
