<svg width="240" height="150" viewBox="0 0 240 150" fill="none" xmlns="http://www.w3.org/2000/svg">
<g filter="url(#filter0_d_1_2095)">
<g clip-path="url(#clip0_1_2095)">
<rect width="240" height="150" rx="12" fill="url(#paint0_linear_1_2095)"/>
<rect y="-0.75" width="285" height="180" rx="12" fill="url(#paint1_linear_1_2095)"/>
<mask id="mask0_1_2095" style="mask-type:alpha" maskUnits="userSpaceOnUse" x="0" y="-1" width="285" height="181">
<rect y="-0.75" width="285" height="180" rx="12" fill="url(#paint2_linear_1_2095)" fill-opacity="0.1"/>
</mask>
<g mask="url(#mask0_1_2095)">
<ellipse cx="138.836" cy="187.023" rx="154.307" ry="155.045" fill="url(#paint3_linear_1_2095)"/>
</g>
<mask id="mask1_1_2095" style="mask-type:alpha" maskUnits="userSpaceOnUse" x="0" y="-1" width="285" height="181">
<rect y="-0.75" width="285" height="180" rx="12" fill="url(#paint4_linear_1_2095)"/>
</mask>
<g mask="url(#mask1_1_2095)">
<ellipse cx="214.158" cy="-22.8409" rx="105.857" ry="106.364" fill="white" fill-opacity="0.2"/>
</g>
<path d="M23.97 137.14C22.9167 137.14 22.0467 136.79 21.36 136.09C20.6733 135.39 20.33 134.527 20.33 133.5C20.33 132.467 20.6733 131.603 21.36 130.91C22.0467 130.21 22.9167 129.86 23.97 129.86C24.6033 129.86 25.1867 130.01 25.72 130.31C26.26 130.603 26.68 131.003 26.98 131.51L25.79 132.2C25.6167 131.887 25.37 131.643 25.05 131.47C24.73 131.29 24.37 131.2 23.97 131.2C23.29 131.2 22.74 131.413 22.32 131.84C21.9067 132.267 21.7 132.82 21.7 133.5C21.7 134.173 21.9067 134.723 22.32 135.15C22.74 135.577 23.29 135.79 23.97 135.79C24.37 135.79 24.73 135.703 25.05 135.53C25.3767 135.35 25.6233 135.107 25.79 134.8L26.98 135.49C26.68 135.997 26.2633 136.4 25.73 136.7C25.1967 136.993 24.61 137.14 23.97 137.14ZM31.597 132H32.887V137H31.597V136.41C31.2104 136.897 30.667 137.14 29.967 137.14C29.3004 137.14 28.727 136.887 28.247 136.38C27.7737 135.867 27.537 135.24 27.537 134.5C27.537 133.76 27.7737 133.137 28.247 132.63C28.727 132.117 29.3004 131.86 29.967 131.86C30.667 131.86 31.2104 132.103 31.597 132.59V132ZM29.217 135.52C29.477 135.78 29.807 135.91 30.207 135.91C30.607 135.91 30.937 135.78 31.197 135.52C31.4637 135.253 31.597 134.913 31.597 134.5C31.597 134.087 31.4637 133.75 31.197 133.49C30.937 133.223 30.607 133.09 30.207 133.09C29.807 133.09 29.477 133.223 29.217 133.49C28.957 133.75 28.827 134.087 28.827 134.5C28.827 134.913 28.957 135.253 29.217 135.52ZM35.3468 132.86C35.4668 132.54 35.6635 132.3 35.9368 132.14C36.2168 131.98 36.5268 131.9 36.8668 131.9V133.34C36.4735 133.293 36.1201 133.373 35.8068 133.58C35.5001 133.787 35.3468 134.13 35.3468 134.61V137H34.0568V132H35.3468V132.86ZM41.2357 132H42.5257V137H41.2357V136.41C40.849 136.897 40.3057 137.14 39.6057 137.14C38.939 137.14 38.3657 136.887 37.8857 136.38C37.4124 135.867 37.1757 135.24 37.1757 134.5C37.1757 133.76 37.4124 133.137 37.8857 132.63C38.3657 132.117 38.939 131.86 39.6057 131.86C40.3057 131.86 40.849 132.103 41.2357 132.59V132ZM38.8557 135.52C39.1157 135.78 39.4457 135.91 39.8457 135.91C40.2457 135.91 40.5757 135.78 40.8357 135.52C41.1024 135.253 41.2357 134.913 41.2357 134.5C41.2357 134.087 41.1024 133.75 40.8357 133.49C40.5757 133.223 40.2457 133.09 39.8457 133.09C39.4457 133.09 39.1157 133.223 38.8557 133.49C38.5957 133.75 38.4657 134.087 38.4657 134.5C38.4657 134.913 38.5957 135.253 38.8557 135.52ZM49.0355 130C49.9955 130 50.7955 130.337 51.4355 131.01C52.0821 131.683 52.4055 132.513 52.4055 133.5C52.4055 134.487 52.0821 135.317 51.4355 135.99C50.7955 136.663 49.9955 137 49.0355 137H46.2555V130H49.0355ZM49.0355 135.68C49.6421 135.68 50.1355 135.48 50.5155 135.08C50.8955 134.673 51.0855 134.147 51.0855 133.5C51.0855 132.853 50.8955 132.33 50.5155 131.93C50.1355 131.523 49.6421 131.32 49.0355 131.32H47.6355V135.68H49.0355ZM56.6732 132H57.9632V137H56.6732V136.44C56.3599 136.907 55.8632 137.14 55.1832 137.14C54.6365 137.14 54.1832 136.957 53.8232 136.59C53.4699 136.223 53.2932 135.717 53.2932 135.07V132H54.5832V134.91C54.5832 135.243 54.6732 135.5 54.8532 135.68C55.0332 135.853 55.2732 135.94 55.5732 135.94C55.9065 135.94 56.1732 135.837 56.3732 135.63C56.5732 135.423 56.6732 135.113 56.6732 134.7V132ZM61.9247 131.86C62.4714 131.86 62.9214 132.043 63.2747 132.41C63.6347 132.777 63.8147 133.283 63.8147 133.93V137H62.5247V134.09C62.5247 133.757 62.4347 133.503 62.2547 133.33C62.0747 133.15 61.8347 133.06 61.5347 133.06C61.2014 133.06 60.9347 133.163 60.7347 133.37C60.5347 133.577 60.4347 133.887 60.4347 134.3V137H59.1447V132H60.4347V132.56C60.748 132.093 61.2447 131.86 61.9247 131.86ZM66.0062 135.03C66.1795 135.657 66.6495 135.97 67.4162 135.97C67.9095 135.97 68.2828 135.803 68.5362 135.47L69.5762 136.07C69.0828 136.783 68.3562 137.14 67.3962 137.14C66.5695 137.14 65.9062 136.89 65.4062 136.39C64.9062 135.89 64.6562 135.26 64.6562 134.5C64.6562 133.747 64.9028 133.12 65.3962 132.62C65.8895 132.113 66.5228 131.86 67.2962 131.86C68.0295 131.86 68.6328 132.113 69.1062 132.62C69.5862 133.127 69.8262 133.753 69.8262 134.5C69.8262 134.667 69.8095 134.843 69.7762 135.03H66.0062ZM65.9862 134.03H68.5362C68.4628 133.69 68.3095 133.437 68.0762 133.27C67.8495 133.103 67.5895 133.02 67.2962 133.02C66.9495 133.02 66.6628 133.11 66.4362 133.29C66.2095 133.463 66.0595 133.71 65.9862 134.03Z" fill="white"/>
<path d="M25.59 109.8V110.67H24.74V112H23.81V110.67H20.24V109.8L22.75 105H23.75L21.24 109.8H23.81V107.82H24.74V109.8H25.59ZM27.112 112V111.24L29.582 108.72C30.242 108.06 30.572 107.493 30.572 107.02C30.572 106.627 30.452 106.32 30.212 106.1C29.972 105.88 29.6786 105.77 29.332 105.77C28.672 105.77 28.192 106.083 27.892 106.71L27.112 106.25C27.332 105.797 27.6353 105.453 28.022 105.22C28.4153 104.987 28.8486 104.87 29.322 104.87C29.9086 104.87 30.4186 105.063 30.852 105.45C31.2853 105.837 31.502 106.357 31.502 107.01C31.502 107.717 31.0853 108.487 30.252 109.32L28.462 111.1H31.632V112H27.112ZM35.5396 107.42C36.2396 107.42 36.8163 107.64 37.2696 108.08C37.7229 108.513 37.9496 109.077 37.9496 109.77C37.9496 110.463 37.7229 111.03 37.2696 111.47C36.8163 111.91 36.2396 112.13 35.5396 112.13C34.8329 112.13 34.2529 111.91 33.7996 111.47C33.3529 111.03 33.1296 110.463 33.1296 109.77C33.1296 109.23 33.2696 108.763 33.5496 108.37L35.7996 105H36.8596L35.2096 107.44C35.3563 107.427 35.4663 107.42 35.5396 107.42ZM34.4596 110.84C34.7396 111.107 35.0996 111.24 35.5396 111.24C35.9796 111.24 36.3363 111.107 36.6096 110.84C36.8896 110.567 37.0296 110.21 37.0296 109.77C37.0296 109.33 36.8896 108.977 36.6096 108.71C36.3363 108.443 35.9796 108.31 35.5396 108.31C35.0929 108.31 34.7329 108.443 34.4596 108.71C34.1863 108.977 34.0496 109.33 34.0496 109.77C34.0496 110.21 34.1863 110.567 34.4596 110.84ZM41.7352 107.73C42.3952 107.73 42.9518 107.927 43.4052 108.32C43.8652 108.707 44.0952 109.243 44.0952 109.93C44.0952 110.61 43.8618 111.147 43.3952 111.54C42.9285 111.933 42.3618 112.13 41.6952 112.13C41.1618 112.13 40.6852 112.003 40.2652 111.75C39.8452 111.49 39.5518 111.117 39.3852 110.63L40.1752 110.18C40.2685 110.52 40.4485 110.78 40.7152 110.96C40.9818 111.133 41.3085 111.22 41.6952 111.22C42.1352 111.22 42.4918 111.107 42.7652 110.88C43.0385 110.653 43.1752 110.337 43.1752 109.93C43.1752 109.523 43.0385 109.207 42.7652 108.98C42.4918 108.747 42.1418 108.63 41.7152 108.63H39.7352L39.9952 105H43.8252V105.87H40.8352L40.7152 107.73H41.7352Z" fill="white"/>
<path d="M59.08 108.38C59.42 108.553 59.6867 108.787 59.88 109.08C60.0733 109.373 60.17 109.707 60.17 110.08C60.17 110.72 59.9467 111.223 59.5 111.59C59.0533 111.95 58.4767 112.13 57.77 112.13C57.07 112.13 56.4967 111.95 56.05 111.59C55.6033 111.223 55.38 110.72 55.38 110.08C55.38 109.707 55.4767 109.373 55.67 109.08C55.8633 108.787 56.13 108.553 56.47 108.38C55.8967 108.02 55.61 107.51 55.61 106.85C55.61 106.217 55.82 105.73 56.24 105.39C56.6667 105.043 57.1767 104.87 57.77 104.87C58.37 104.87 58.88 105.043 59.3 105.39C59.7267 105.73 59.94 106.217 59.94 106.85C59.94 107.51 59.6533 108.02 59.08 108.38ZM57.77 105.76C57.4167 105.76 57.12 105.853 56.88 106.04C56.6467 106.227 56.53 106.503 56.53 106.87C56.53 107.223 56.65 107.5 56.89 107.7C57.13 107.893 57.4233 107.99 57.77 107.99C58.1167 107.99 58.41 107.893 58.65 107.7C58.89 107.5 59.01 107.223 59.01 106.87C59.01 106.503 58.8933 106.227 58.66 106.04C58.4267 105.853 58.13 105.76 57.77 105.76ZM57.77 111.24C58.2167 111.24 58.5733 111.137 58.84 110.93C59.1133 110.717 59.25 110.413 59.25 110.02C59.25 109.633 59.1133 109.337 58.84 109.13C58.5733 108.917 58.2167 108.81 57.77 108.81C57.33 108.81 56.9733 108.917 56.7 109.13C56.4333 109.337 56.3 109.633 56.3 110.02C56.3 110.413 56.4333 110.717 56.7 110.93C56.9733 111.137 57.33 111.24 57.77 111.24ZM64.1492 107.73C64.8092 107.73 65.3659 107.927 65.8192 108.32C66.2792 108.707 66.5092 109.243 66.5092 109.93C66.5092 110.61 66.2759 111.147 65.8092 111.54C65.3426 111.933 64.7759 112.13 64.1092 112.13C63.5759 112.13 63.0992 112.003 62.6792 111.75C62.2592 111.49 61.9659 111.117 61.7992 110.63L62.5892 110.18C62.6826 110.52 62.8626 110.78 63.1292 110.96C63.3959 111.133 63.7226 111.22 64.1092 111.22C64.5492 111.22 64.9059 111.107 65.1792 110.88C65.4526 110.653 65.5892 110.337 65.5892 109.93C65.5892 109.523 65.4526 109.207 65.1792 108.98C64.9059 108.747 64.5559 108.63 64.1292 108.63H62.1492L62.4092 105H66.2392V105.87H63.2492L63.1292 107.73H64.1492ZM69.605 105H70.405V112H69.485V106L67.995 106.44L67.765 105.64L69.605 105ZM74.8795 107.42C75.5795 107.42 76.1561 107.64 76.6095 108.08C77.0628 108.513 77.2895 109.077 77.2895 109.77C77.2895 110.463 77.0628 111.03 76.6095 111.47C76.1561 111.91 75.5795 112.13 74.8795 112.13C74.1728 112.13 73.5928 111.91 73.1395 111.47C72.6928 111.03 72.4695 110.463 72.4695 109.77C72.4695 109.23 72.6095 108.763 72.8895 108.37L75.1395 105H76.1995L74.5495 107.44C74.6961 107.427 74.8061 107.42 74.8795 107.42ZM73.7995 110.84C74.0795 111.107 74.4395 111.24 74.8795 111.24C75.3195 111.24 75.6761 111.107 75.9495 110.84C76.2295 110.567 76.3695 110.21 76.3695 109.77C76.3695 109.33 76.2295 108.977 75.9495 108.71C75.6761 108.443 75.3195 108.31 74.8795 108.31C74.4328 108.31 74.0728 108.443 73.7995 108.71C73.5261 108.977 73.3895 109.33 73.3895 109.77C73.3895 110.21 73.5261 110.567 73.7995 110.84Z" fill="white"/>
<path d="M93.14 111.14C92.6667 111.8 92.0033 112.13 91.15 112.13C90.2967 112.13 89.6333 111.8 89.16 111.14C88.6867 110.48 88.45 109.6 88.45 108.5C88.45 107.4 88.6867 106.52 89.16 105.86C89.6333 105.2 90.2967 104.87 91.15 104.87C92.0033 104.87 92.6667 105.2 93.14 105.86C93.6133 106.52 93.85 107.4 93.85 108.5C93.85 109.6 93.6133 110.48 93.14 111.14ZM89.84 110.51C90.1467 110.983 90.5833 111.22 91.15 111.22C91.7167 111.22 92.1533 110.983 92.46 110.51C92.7733 110.037 92.93 109.367 92.93 108.5C92.93 107.633 92.7733 106.963 92.46 106.49C92.1533 106.01 91.7167 105.77 91.15 105.77C90.5833 105.77 90.1467 106.007 89.84 106.48C89.5333 106.953 89.38 107.627 89.38 108.5C89.38 109.367 89.5333 110.037 89.84 110.51ZM100.889 109.8V110.67H100.039V112H99.1088V110.67H95.5388V109.8L98.0488 105H99.0488L96.5388 109.8H99.1088V107.82H100.039V109.8H100.889ZM106.209 108.38C106.549 108.553 106.816 108.787 107.009 109.08C107.202 109.373 107.299 109.707 107.299 110.08C107.299 110.72 107.076 111.223 106.629 111.59C106.182 111.95 105.606 112.13 104.899 112.13C104.199 112.13 103.626 111.95 103.179 111.59C102.732 111.223 102.509 110.72 102.509 110.08C102.509 109.707 102.606 109.373 102.799 109.08C102.992 108.787 103.259 108.553 103.599 108.38C103.026 108.02 102.739 107.51 102.739 106.85C102.739 106.217 102.949 105.73 103.369 105.39C103.796 105.043 104.306 104.87 104.899 104.87C105.499 104.87 106.009 105.043 106.429 105.39C106.856 105.73 107.069 106.217 107.069 106.85C107.069 107.51 106.782 108.02 106.209 108.38ZM104.899 105.76C104.546 105.76 104.249 105.853 104.009 106.04C103.776 106.227 103.659 106.503 103.659 106.87C103.659 107.223 103.779 107.5 104.019 107.7C104.259 107.893 104.552 107.99 104.899 107.99C105.246 107.99 105.539 107.893 105.779 107.7C106.019 107.5 106.139 107.223 106.139 106.87C106.139 106.503 106.022 106.227 105.789 106.04C105.556 105.853 105.259 105.76 104.899 105.76ZM104.899 111.24C105.346 111.24 105.702 111.137 105.969 110.93C106.242 110.717 106.379 110.413 106.379 110.02C106.379 109.633 106.242 109.337 105.969 109.13C105.702 108.917 105.346 108.81 104.899 108.81C104.459 108.81 104.102 108.917 103.829 109.13C103.562 109.337 103.429 109.633 103.429 110.02C103.429 110.413 103.562 110.717 103.829 110.93C104.102 111.137 104.459 111.24 104.899 111.24ZM113.816 111.14C113.342 111.8 112.679 112.13 111.826 112.13C110.972 112.13 110.309 111.8 109.836 111.14C109.362 110.48 109.126 109.6 109.126 108.5C109.126 107.4 109.362 106.52 109.836 105.86C110.309 105.2 110.972 104.87 111.826 104.87C112.679 104.87 113.342 105.2 113.816 105.86C114.289 106.52 114.526 107.4 114.526 108.5C114.526 109.6 114.289 110.48 113.816 111.14ZM110.516 110.51C110.822 110.983 111.259 111.22 111.826 111.22C112.392 111.22 112.829 110.983 113.136 110.51C113.449 110.037 113.606 109.367 113.606 108.5C113.606 107.633 113.449 106.963 113.136 106.49C112.829 106.01 112.392 105.77 111.826 105.77C111.259 105.77 110.822 106.007 110.516 106.48C110.209 106.953 110.056 107.627 110.056 108.5C110.056 109.367 110.209 110.037 110.516 110.51Z" fill="white"/>
<path d="M125.36 112V111.24L127.83 108.72C128.49 108.06 128.82 107.493 128.82 107.02C128.82 106.627 128.7 106.32 128.46 106.1C128.22 105.88 127.927 105.77 127.58 105.77C126.92 105.77 126.44 106.083 126.14 106.71L125.36 106.25C125.58 105.797 125.883 105.453 126.27 105.22C126.663 104.987 127.097 104.87 127.57 104.87C128.157 104.87 128.667 105.063 129.1 105.45C129.533 105.837 129.75 106.357 129.75 107.01C129.75 107.717 129.333 108.487 128.5 109.32L126.71 111.1H129.88V112H125.36ZM136.316 111.14C135.842 111.8 135.179 112.13 134.326 112.13C133.472 112.13 132.809 111.8 132.336 111.14C131.862 110.48 131.626 109.6 131.626 108.5C131.626 107.4 131.862 106.52 132.336 105.86C132.809 105.2 133.472 104.87 134.326 104.87C135.179 104.87 135.842 105.2 136.316 105.86C136.789 106.52 137.026 107.4 137.026 108.5C137.026 109.6 136.789 110.48 136.316 111.14ZM133.016 110.51C133.322 110.983 133.759 111.22 134.326 111.22C134.892 111.22 135.329 110.983 135.636 110.51C135.949 110.037 136.106 109.367 136.106 108.5C136.106 107.633 135.949 106.963 135.636 106.49C135.329 106.01 134.892 105.77 134.326 105.77C133.759 105.77 133.322 106.007 133.016 106.48C132.709 106.953 132.556 107.627 132.556 108.5C132.556 109.367 132.709 110.037 133.016 110.51ZM141.145 107.73C141.805 107.73 142.362 107.927 142.815 108.32C143.275 108.707 143.505 109.243 143.505 109.93C143.505 110.61 143.272 111.147 142.805 111.54C142.339 111.933 141.772 112.13 141.105 112.13C140.572 112.13 140.095 112.003 139.675 111.75C139.255 111.49 138.962 111.117 138.795 110.63L139.585 110.18C139.679 110.52 139.859 110.78 140.125 110.96C140.392 111.133 140.719 111.22 141.105 111.22C141.545 111.22 141.902 111.107 142.175 110.88C142.449 110.653 142.585 110.337 142.585 109.93C142.585 109.523 142.449 109.207 142.175 108.98C141.902 108.747 141.552 108.63 141.125 108.63H139.145L139.405 105H143.235V105.87H140.245L140.125 107.73H141.145ZM149.839 111.14C149.366 111.8 148.703 112.13 147.849 112.13C146.996 112.13 146.333 111.8 145.859 111.14C145.386 110.48 145.149 109.6 145.149 108.5C145.149 107.4 145.386 106.52 145.859 105.86C146.333 105.2 146.996 104.87 147.849 104.87C148.703 104.87 149.366 105.2 149.839 105.86C150.313 106.52 150.549 107.4 150.549 108.5C150.549 109.6 150.313 110.48 149.839 111.14ZM146.539 110.51C146.846 110.983 147.283 111.22 147.849 111.22C148.416 111.22 148.853 110.983 149.159 110.51C149.473 110.037 149.629 109.367 149.629 108.5C149.629 107.633 149.473 106.963 149.159 106.49C148.853 106.01 148.416 105.77 147.849 105.77C147.283 105.77 146.846 106.007 146.539 106.48C146.233 106.953 146.079 107.627 146.079 108.5C146.079 109.367 146.233 110.037 146.539 110.51Z" fill="white"/>
<path opacity="0.75" d="M24.75 21.37C25.07 21.5233 25.3233 21.7433 25.51 22.03C25.7033 22.3167 25.8 22.6467 25.8 23.02C25.8 23.58 25.6033 24.05 25.21 24.43C24.8167 24.81 24.3367 25 23.77 25H20.75V18H23.55C24.0967 18 24.56 18.1833 24.94 18.55C25.32 18.9167 25.51 19.37 25.51 19.91C25.51 20.53 25.2567 21.0167 24.75 21.37ZM23.55 18.87H21.68V21.01H23.55C23.8433 21.01 24.09 20.9067 24.29 20.7C24.49 20.4933 24.59 20.24 24.59 19.94C24.59 19.6467 24.4867 19.3967 24.28 19.19C24.08 18.9767 23.8367 18.87 23.55 18.87ZM23.77 24.13C24.0833 24.13 24.3467 24.02 24.56 23.8C24.7733 23.58 24.88 23.31 24.88 22.99C24.88 22.6767 24.77 22.41 24.55 22.19C24.3367 21.97 24.0767 21.86 23.77 21.86H21.68V24.13H23.77ZM31.9816 20H32.8516V25H31.9816V24.14C31.5483 24.8 30.9183 25.13 30.0916 25.13C29.3916 25.13 28.795 24.8767 28.3016 24.37C27.8083 23.8567 27.5616 23.2333 27.5616 22.5C27.5616 21.7667 27.8083 21.1467 28.3016 20.64C28.795 20.1267 29.3916 19.87 30.0916 19.87C30.9183 19.87 31.5483 20.2 31.9816 20.86V20ZM30.2016 24.29C30.7083 24.29 31.1316 24.12 31.4716 23.78C31.8116 23.4333 31.9816 23.0067 31.9816 22.5C31.9816 21.9933 31.8116 21.57 31.4716 21.23C31.1316 20.8833 30.7083 20.71 30.2016 20.71C29.7016 20.71 29.2816 20.8833 28.9416 21.23C28.6016 21.57 28.4316 21.9933 28.4316 22.5C28.4316 23.0067 28.6016 23.4333 28.9416 23.78C29.2816 24.12 29.7016 24.29 30.2016 24.29ZM35.1698 25V17.7H36.0398V25H35.1698ZM42.507 20H43.377V25H42.507V24.14C42.0737 24.8 41.4437 25.13 40.617 25.13C39.917 25.13 39.3204 24.8767 38.827 24.37C38.3337 23.8567 38.087 23.2333 38.087 22.5C38.087 21.7667 38.3337 21.1467 38.827 20.64C39.3204 20.1267 39.917 19.87 40.617 19.87C41.4437 19.87 42.0737 20.2 42.507 20.86V20ZM40.727 24.29C41.2337 24.29 41.657 24.12 41.997 23.78C42.337 23.4333 42.507 23.0067 42.507 22.5C42.507 21.9933 42.337 21.57 41.997 21.23C41.657 20.8833 41.2337 20.71 40.727 20.71C40.227 20.71 39.807 20.8833 39.467 21.23C39.127 21.57 38.957 21.9933 38.957 22.5C38.957 23.0067 39.127 23.4333 39.467 23.78C39.807 24.12 40.227 24.29 40.727 24.29ZM48.1852 19.87C48.7718 19.87 49.2418 20.0567 49.5952 20.43C49.9485 20.7967 50.1252 21.2967 50.1252 21.93V25H49.2552V21.98C49.2552 21.5733 49.1452 21.26 48.9252 21.04C48.7052 20.8133 48.4018 20.7 48.0152 20.7C47.5818 20.7 47.2318 20.8367 46.9652 21.11C46.6985 21.3767 46.5652 21.79 46.5652 22.35V25H45.6952V20H46.5652V20.72C46.9185 20.1533 47.4585 19.87 48.1852 19.87ZM54.6897 25.13C53.9364 25.13 53.3097 24.88 52.8097 24.38C52.3097 23.8733 52.0597 23.2467 52.0597 22.5C52.0597 21.7533 52.3097 21.13 52.8097 20.63C53.3097 20.1233 53.9364 19.87 54.6897 19.87C55.183 19.87 55.6264 19.99 56.0197 20.23C56.413 20.4633 56.7064 20.78 56.8997 21.18L56.1697 21.6C56.043 21.3333 55.8464 21.12 55.5797 20.96C55.3197 20.8 55.023 20.72 54.6897 20.72C54.1897 20.72 53.7697 20.89 53.4297 21.23C53.0964 21.57 52.9297 21.9933 52.9297 22.5C52.9297 23 53.0964 23.42 53.4297 23.76C53.7697 24.1 54.1897 24.27 54.6897 24.27C55.023 24.27 55.323 24.1933 55.5897 24.04C55.8564 23.88 56.0597 23.6667 56.1997 23.4L56.9397 23.83C56.7264 24.2233 56.4197 24.54 56.0197 24.78C55.6197 25.0133 55.1764 25.13 54.6897 25.13ZM59.3403 22.9C59.427 23.3467 59.6303 23.6933 59.9503 23.94C60.277 24.1867 60.677 24.31 61.1503 24.31C61.8103 24.31 62.2903 24.0667 62.5903 23.58L63.3303 24C62.8436 24.7533 62.1103 25.13 61.1303 25.13C60.337 25.13 59.6903 24.8833 59.1903 24.39C58.697 23.89 58.4503 23.26 58.4503 22.5C58.4503 21.7467 58.6936 21.12 59.1803 20.62C59.667 20.12 60.297 19.87 61.0703 19.87C61.8036 19.87 62.4003 20.13 62.8603 20.65C63.327 21.1633 63.5603 21.7833 63.5603 22.51C63.5603 22.6367 63.5503 22.7667 63.5303 22.9H59.3403ZM61.0703 20.69C60.6036 20.69 60.217 20.8233 59.9103 21.09C59.6036 21.35 59.4136 21.7 59.3403 22.14H62.6803C62.607 21.6667 62.4203 21.3067 62.1203 21.06C61.8203 20.8133 61.4703 20.69 61.0703 20.69ZM66.1104 21.18C65.9304 21.18 65.7771 21.1167 65.6504 20.99C65.5237 20.8633 65.4604 20.71 65.4604 20.53C65.4604 20.35 65.5237 20.1967 65.6504 20.07C65.7771 19.9433 65.9304 19.88 66.1104 19.88C66.2971 19.88 66.4504 19.9433 66.5704 20.07C66.6971 20.1967 66.7604 20.35 66.7604 20.53C66.7604 20.71 66.6971 20.8633 66.5704 20.99C66.4504 21.1167 66.2971 21.18 66.1104 21.18ZM66.1104 25.11C65.9304 25.11 65.7771 25.0467 65.6504 24.92C65.5237 24.7933 65.4604 24.64 65.4604 24.46C65.4604 24.28 65.5237 24.1267 65.6504 24C65.7771 23.8733 65.9304 23.81 66.1104 23.81C66.2971 23.81 66.4504 23.8733 66.5704 24C66.6971 24.1267 66.7604 24.28 66.7604 24.46C66.7604 24.64 66.6971 24.7933 66.5704 24.92C66.4504 25.0467 66.2971 25.11 66.1104 25.11Z" fill="white"/>
<path d="M23.472 45.56H29.12V47H20.608V45.56H22V42.456H20.88V41.144H22V39C22 37.9013 22.3307 37.0587 22.992 36.472C23.664 35.8853 24.4533 35.592 25.36 35.592C26.1173 35.592 26.768 35.7893 27.312 36.184C27.856 36.568 28.2667 37.1067 28.544 37.8L27.312 38.504C26.96 37.5227 26.3147 37.032 25.376 37.032C24.832 37.032 24.3787 37.2027 24.016 37.544C23.6533 37.8747 23.472 38.3707 23.472 39.032V41.144H27.024V42.456H23.472V45.56ZM44.7038 39.352C44.7038 40.216 44.4744 40.968 44.0158 41.608H44.0318L40.4158 47H38.7358L41.3918 43.08C41.1571 43.1013 40.9758 43.112 40.8478 43.112C39.7171 43.112 38.7891 42.7653 38.0638 42.072C37.3491 41.368 36.9918 40.4613 36.9918 39.352C36.9918 38.2427 37.3491 37.3413 38.0638 36.648C38.7891 35.944 39.7171 35.592 40.8478 35.592C41.9784 35.592 42.9011 35.944 43.6158 36.648C44.3411 37.3413 44.7038 38.2427 44.7038 39.352ZM39.1198 37.656C38.6824 38.0827 38.4638 38.648 38.4638 39.352C38.4638 40.056 38.6824 40.6267 39.1198 41.064C39.5678 41.4907 40.1438 41.704 40.8478 41.704C41.5518 41.704 42.1224 41.4907 42.5598 41.064C43.0078 40.6267 43.2318 40.056 43.2318 39.352C43.2318 38.648 43.0131 38.0827 42.5758 37.656C42.1384 37.2293 41.5624 37.016 40.8478 37.016C40.1438 37.016 39.5678 37.2293 39.1198 37.656ZM50.4481 40.168C51.5041 40.168 52.3948 40.4827 53.1201 41.112C53.8561 41.7307 54.2241 42.5893 54.2241 43.688C54.2241 44.776 53.8508 45.6347 53.1041 46.264C52.3575 46.8933 51.4508 47.208 50.3841 47.208C49.5308 47.208 48.7681 47.0053 48.0961 46.6C47.4241 46.184 46.9548 45.5867 46.6881 44.808L47.9521 44.088C48.1015 44.632 48.3895 45.048 48.8161 45.336C49.2428 45.6133 49.7655 45.752 50.3841 45.752C51.0881 45.752 51.6588 45.5707 52.0961 45.208C52.5335 44.8453 52.7521 44.3387 52.7521 43.688C52.7521 43.0373 52.5335 42.5307 52.0961 42.168C51.6588 41.7947 51.0988 41.608 50.4161 41.608H47.2481L47.6641 35.8H53.7921V37.192H49.0081L48.8161 40.168H50.4481ZM59.2391 45.352L58.1991 49.24H56.9991L57.6391 45.352H59.2391ZM66.054 39.672C67.174 39.672 68.0967 40.024 68.822 40.728C69.5473 41.4213 69.91 42.3227 69.91 43.432C69.91 44.5413 69.5473 45.448 68.822 46.152C68.0967 46.856 67.174 47.208 66.054 47.208C64.9233 47.208 63.9953 46.856 63.27 46.152C62.5553 45.448 62.198 44.5413 62.198 43.432C62.198 42.568 62.422 41.8213 62.87 41.192L66.47 35.8H68.166L65.526 39.704C65.7607 39.6827 65.9367 39.672 66.054 39.672ZM64.326 45.144C64.774 45.5707 65.35 45.784 66.054 45.784C66.758 45.784 67.3287 45.5707 67.766 45.144C68.214 44.7067 68.438 44.136 68.438 43.432C68.438 42.728 68.214 42.1627 67.766 41.736C67.3287 41.3093 66.758 41.096 66.054 41.096C65.3393 41.096 64.7633 41.3093 64.326 41.736C63.8887 42.1627 63.67 42.728 63.67 43.432C63.67 44.136 63.8887 44.7067 64.326 45.144ZM78.4874 41.208C79.0314 41.4853 79.458 41.8587 79.7674 42.328C80.0767 42.7973 80.2314 43.3307 80.2314 43.928C80.2314 44.952 79.874 45.7573 79.1594 46.344C78.4447 46.92 77.522 47.208 76.3914 47.208C75.2714 47.208 74.354 46.92 73.6394 46.344C72.9247 45.7573 72.5674 44.952 72.5674 43.928C72.5674 43.3307 72.722 42.7973 73.0314 42.328C73.3407 41.8587 73.7674 41.4853 74.3114 41.208C73.394 40.632 72.9354 39.816 72.9354 38.76C72.9354 37.7467 73.2714 36.968 73.9434 36.424C74.626 35.8693 75.442 35.592 76.3914 35.592C77.3514 35.592 78.1674 35.8693 78.8394 36.424C79.522 36.968 79.8634 37.7467 79.8634 38.76C79.8634 39.816 79.4047 40.632 78.4874 41.208ZM76.3914 37.016C75.826 37.016 75.3514 37.1653 74.9674 37.464C74.594 37.7627 74.4074 38.2053 74.4074 38.792C74.4074 39.3573 74.5994 39.8 74.9834 40.12C75.3674 40.4293 75.8367 40.584 76.3914 40.584C76.946 40.584 77.4154 40.4293 77.7994 40.12C78.1834 39.8 78.3754 39.3573 78.3754 38.792C78.3754 38.2053 78.1887 37.7627 77.8154 37.464C77.442 37.1653 76.9674 37.016 76.3914 37.016ZM76.3914 45.784C77.106 45.784 77.6767 45.6187 78.1034 45.288C78.5407 44.9467 78.7594 44.4613 78.7594 43.832C78.7594 43.2133 78.5407 42.7387 78.1034 42.408C77.6767 42.0667 77.106 41.896 76.3914 41.896C75.6874 41.896 75.1167 42.0667 74.6794 42.408C74.2527 42.7387 74.0394 43.2133 74.0394 43.832C74.0394 44.4613 74.2527 44.9467 74.6794 45.288C75.1167 45.6187 75.6874 45.784 76.3914 45.784ZM82.4099 35.8H89.4019V37.128L85.3219 47H83.7699L87.8179 37.208H82.4099V35.8ZM91.0954 47.176C90.8074 47.176 90.562 47.0747 90.3594 46.872C90.1567 46.6693 90.0554 46.424 90.0554 46.136C90.0554 45.848 90.1567 45.6027 90.3594 45.4C90.562 45.1973 90.8074 45.096 91.0954 45.096C91.394 45.096 91.6394 45.1973 91.8314 45.4C92.034 45.6027 92.1354 45.848 92.1354 46.136C92.1354 46.424 92.034 46.6693 91.8314 46.872C91.6394 47.0747 91.394 47.176 91.0954 47.176ZM99.706 40.392C100.559 40.552 101.258 40.92 101.802 41.496C102.346 42.072 102.618 42.8027 102.618 43.688C102.618 44.776 102.245 45.6347 101.498 46.264C100.751 46.8933 99.8447 47.208 98.778 47.208C97.9247 47.208 97.1673 47.016 96.506 46.632C95.8447 46.2373 95.3753 45.672 95.098 44.936L96.346 44.2C96.6767 45.2347 97.4873 45.752 98.778 45.752C99.4713 45.752 100.037 45.5707 100.474 45.208C100.911 44.8453 101.13 44.3387 101.13 43.688C101.13 43.0373 100.911 42.5307 100.474 42.168C100.037 41.7947 99.4713 41.608 98.778 41.608H98.394L97.802 40.696L100.394 37.192H95.418V35.8H102.138V37.112L99.706 40.392ZM109.117 39.672C110.237 39.672 111.159 40.024 111.885 40.728C112.61 41.4213 112.973 42.3227 112.973 43.432C112.973 44.5413 112.61 45.448 111.885 46.152C111.159 46.856 110.237 47.208 109.117 47.208C107.986 47.208 107.058 46.856 106.333 46.152C105.618 45.448 105.261 44.5413 105.261 43.432C105.261 42.568 105.485 41.8213 105.933 41.192L109.533 35.8H111.229L108.589 39.704C108.823 39.6827 108.999 39.672 109.117 39.672ZM107.389 45.144C107.837 45.5707 108.413 45.784 109.117 45.784C109.821 45.784 110.391 45.5707 110.829 45.144C111.277 44.7067 111.501 44.136 111.501 43.432C111.501 42.728 111.277 42.1627 110.829 41.736C110.391 41.3093 109.821 41.096 109.117 41.096C108.402 41.096 107.826 41.3093 107.389 41.736C106.951 42.1627 106.733 42.728 106.733 43.432C106.733 44.136 106.951 44.7067 107.389 45.144Z" fill="white"/>
<path fill-rule="evenodd" clip-rule="evenodd" d="M20 66.9758C20 64.78 21.6884 63 23.7712 63H46.3982C48.4809 63 50.1694 64.78 50.1694 66.9758V83.3746C50.1694 85.5704 48.4809 87.3504 46.3982 87.3504H23.7712C21.6884 87.3504 20 85.5704 20 83.3746V66.9758ZM40.6341 63.7677H46.3982C48.0788 63.7677 49.4411 65.204 49.4411 66.9758V70.1068H40.6341V63.7677ZM39.9059 63.7677H23.7712C22.0906 63.7677 20.7282 65.204 20.7282 66.9758V70.1067H28.4851C29.7276 70.1067 30.7348 71.1686 30.7348 72.4785V86.5827H39.9059V63.7677ZM40.6341 86.5827H46.3982C48.0788 86.5827 49.4411 85.1464 49.4411 83.3746V82.6098H40.6341V86.5827ZM49.4411 81.8421V76.7422H40.6341V81.8421H49.4411ZM49.4411 75.9744V70.8745H40.6341V75.9744H49.4411ZM30.0066 86.5827V82.6098H20.7282V83.3746C20.7282 85.1464 22.0906 86.5827 23.7712 86.5827H30.0066ZM20.7282 81.842H30.0066V76.7421H20.7282V81.842ZM20.7282 75.9744H30.0066V72.4785C30.0066 71.5926 29.3254 70.8745 28.4851 70.8745H20.7282V75.9744Z" fill="white"/>
<path d="M39.9059 63.7677H23.7712C22.0906 63.7677 20.7282 65.204 20.7282 66.9758V70.1067H28.4851C29.7276 70.1067 30.7348 71.1686 30.7348 72.4785V86.5827H39.9059V63.7677Z" fill="white" fill-opacity="0.26"/>
<path d="M30.0066 75.9744H20.7282V70.8745H28.4851C29.3254 70.8745 30.0066 71.5926 30.0066 72.4785V75.9744Z" fill="white" fill-opacity="0.26"/>
<path d="M30.0066 81.842H20.7282V76.7421H30.0066V81.842Z" fill="white" fill-opacity="0.26"/>
<path d="M30.0066 82.6098V86.5827H23.7712C22.0906 86.5827 20.7282 85.1464 20.7282 83.3746V82.6098H30.0066Z" fill="white" fill-opacity="0.26"/>
<path d="M46.3982 63.7677H40.6341V70.1068H49.4411V66.9758C49.4411 65.204 48.0788 63.7677 46.3982 63.7677Z" fill="white" fill-opacity="0.26"/>
<path d="M49.4411 75.9744V70.8745H40.6341V75.9744H49.4411Z" fill="white" fill-opacity="0.26"/>
<path d="M49.4411 81.8421V76.7422H40.6341V81.8421H49.4411Z" fill="white" fill-opacity="0.26"/>
<path d="M40.6341 86.5827H46.3982C48.0788 86.5827 49.4411 85.1464 49.4411 83.3746V82.6098H40.6341V86.5827Z" fill="white" fill-opacity="0.26"/>
<path d="M197.816 136.14C197.342 136.8 196.679 137.13 195.826 137.13C194.972 137.13 194.309 136.8 193.836 136.14C193.362 135.48 193.126 134.6 193.126 133.5C193.126 132.4 193.362 131.52 193.836 130.86C194.309 130.2 194.972 129.87 195.826 129.87C196.679 129.87 197.342 130.2 197.816 130.86C198.289 131.52 198.526 132.4 198.526 133.5C198.526 134.6 198.289 135.48 197.816 136.14ZM194.516 135.51C194.822 135.983 195.259 136.22 195.826 136.22C196.392 136.22 196.829 135.983 197.136 135.51C197.449 135.037 197.606 134.367 197.606 133.5C197.606 132.633 197.449 131.963 197.136 131.49C196.829 131.01 196.392 130.77 195.826 130.77C195.259 130.77 194.822 131.007 194.516 131.48C194.209 131.953 194.056 132.627 194.056 133.5C194.056 134.367 194.209 135.037 194.516 135.51ZM201.9 132.87C202.434 132.97 202.87 133.2 203.21 133.56C203.55 133.92 203.72 134.377 203.72 134.93C203.72 135.61 203.487 136.147 203.02 136.54C202.554 136.933 201.987 137.13 201.32 137.13C200.787 137.13 200.314 137.01 199.9 136.77C199.487 136.523 199.194 136.17 199.02 135.71L199.8 135.25C200.007 135.897 200.514 136.22 201.32 136.22C201.754 136.22 202.107 136.107 202.38 135.88C202.654 135.653 202.79 135.337 202.79 134.93C202.79 134.523 202.654 134.207 202.38 133.98C202.107 133.747 201.754 133.63 201.32 133.63H201.08L200.71 133.06L202.33 130.87H199.22V130H203.42V130.82L201.9 132.87ZM204.992 138H204.472L208.472 129H208.992L204.992 138ZM209.735 137V136.24L212.205 133.72C212.865 133.06 213.195 132.493 213.195 132.02C213.195 131.627 213.075 131.32 212.835 131.1C212.595 130.88 212.302 130.77 211.955 130.77C211.295 130.77 210.815 131.083 210.515 131.71L209.735 131.25C209.955 130.797 210.258 130.453 210.645 130.22C211.038 129.987 211.472 129.87 211.945 129.87C212.532 129.87 213.042 130.063 213.475 130.45C213.908 130.837 214.125 131.357 214.125 132.01C214.125 132.717 213.708 133.487 212.875 134.32L211.085 136.1H214.255V137H209.735ZM217.27 132.73C217.93 132.73 218.487 132.927 218.94 133.32C219.4 133.707 219.63 134.243 219.63 134.93C219.63 135.61 219.397 136.147 218.93 136.54C218.464 136.933 217.897 137.13 217.23 137.13C216.697 137.13 216.22 137.003 215.8 136.75C215.38 136.49 215.087 136.117 214.92 135.63L215.71 135.18C215.804 135.52 215.984 135.78 216.25 135.96C216.517 136.133 216.844 136.22 217.23 136.22C217.67 136.22 218.027 136.107 218.3 135.88C218.574 135.653 218.71 135.337 218.71 134.93C218.71 134.523 218.574 134.207 218.3 133.98C218.027 133.747 217.677 133.63 217.25 133.63H215.27L215.53 130H219.36V130.87H216.37L216.25 132.73H217.27Z" fill="white"/>
<circle opacity="0.4" cx="212.5" cy="28.5" r="7.5" fill="white"/>
<circle opacity="0.8" cx="203.133" cy="28.5" r="7.5" fill="white"/>
</g>
<rect x="0.5" y="0.5" width="239" height="149" rx="19.5" stroke="url(#paint5_linear_1_2095)" shape-rendering="crispEdges"/>
</g>
<defs>
<filter id="filter0_d_1_2095" x="-24" y="-12" width="288" height="198" filterUnits="userSpaceOnUse" color-interpolation-filters="sRGB">
<feFlood flood-opacity="0" result="BackgroundImageFix"/>
<feColorMatrix in="SourceAlpha" type="matrix" values="0 0 0 0 0 0 0 0 0 0 0 0 0 0 0 0 0 0 127 0" result="hardAlpha"/>
<feOffset dy="12"/>
<feGaussianBlur stdDeviation="12"/>
<feComposite in2="hardAlpha" operator="out"/>
<feColorMatrix type="matrix" values="0 0 0 0 0.14902 0 0 0 0 0.403922 0 0 0 0 1 0 0 0 0.24 0"/>
<feBlend mode="normal" in2="BackgroundImageFix" result="effect1_dropShadow_1_2095"/>
<feBlend mode="normal" in="SourceGraphic" in2="effect1_dropShadow_1_2095" result="shape"/>
</filter>
<linearGradient id="paint0_linear_1_2095" x1="3.57628e-06" y1="150" x2="239.224" y2="-1.22832" gradientUnits="userSpaceOnUse">
<stop stop-color="#051538"/>
<stop offset="0.185417" stop-color="#031C58"/>
<stop offset="0.419792" stop-color="#002783"/>
<stop offset="0.669792" stop-color="#013AC0"/>
<stop offset="1" stop-color="#2667FF"/>
</linearGradient>
<linearGradient id="paint1_linear_1_2095" x1="0" y1="89.25" x2="285" y2="89.25" gradientUnits="userSpaceOnUse">
<stop stop-color="#0048EF"/>
<stop offset="0.0001" stop-color="#003AC0"/>
<stop offset="0.508333" stop-color="#0042DC"/>
<stop offset="1" stop-color="#2667FF"/>
</linearGradient>
<linearGradient id="paint2_linear_1_2095" x1="0" y1="89.25" x2="285" y2="89.25" gradientUnits="userSpaceOnUse">
<stop stop-color="#832388"/>
<stop offset="0.508333" stop-color="#932883"/>
<stop offset="1" stop-color="#A32E7E"/>
</linearGradient>
<linearGradient id="paint3_linear_1_2095" x1="46.415" y1="64.2955" x2="411.22" y2="333.039" gradientUnits="userSpaceOnUse">
<stop stop-color="white"/>
<stop offset="0.342546" stop-color="white" stop-opacity="0"/>
</linearGradient>
<linearGradient id="paint4_linear_1_2095" x1="0" y1="89.25" x2="285" y2="89.25" gradientUnits="userSpaceOnUse">
<stop stop-color="#832388"/>
<stop offset="0.508333" stop-color="#932883"/>
<stop offset="1" stop-color="#A32E7E"/>
</linearGradient>
<linearGradient id="paint5_linear_1_2095" x1="25.3714" y1="2.81777e-05" x2="414.42" y2="273.787" gradientUnits="userSpaceOnUse">
<stop stop-color="white" stop-opacity="0.6"/>
<stop offset="1" stop-opacity="0"/>
<stop offset="1" stop-color="white" stop-opacity="0.3"/>
</linearGradient>
<clipPath id="clip0_1_2095">
<rect width="240" height="150" rx="20" fill="white"/>
</clipPath>
</defs>
</svg>
