<svg width="30" height="30" viewBox="0 0 30 30" fill="none" xmlns="http://www.w3.org/2000/svg">
<path opacity="0.4" d="M27.5006 10.625C27.5006 14.7 24.5006 18.0625 20.6006 18.65V18.575C20.2131 13.725 16.2756 9.7875 11.3881 9.4H11.3506C11.9381 5.5 15.3006 2.5 19.3756 2.5C23.8631 2.5 27.5006 6.1375 27.5006 10.625Z" fill="#2667FF"/>
<path d="M18.725 18.725C18.4125 14.7625 15.2375 11.5875 11.275 11.275C11.0625 11.2625 10.8375 11.25 10.625 11.25C6.1375 11.25 2.5 14.8875 2.5 19.375C2.5 23.8625 6.1375 27.5 10.625 27.5C15.1125 27.5 18.75 23.8625 18.75 19.375C18.75 19.1625 18.7375 18.9375 18.725 18.725ZM11.725 20.475L10.625 22.5L9.525 20.475L7.5 19.375L9.525 18.275L10.625 16.25L11.725 18.275L13.75 19.375L11.725 20.475Z" fill="#2667FF"/>
</svg>
