<svg width="24" height="24" viewBox="0 0 24 24" fill="none" xmlns="http://www.w3.org/2000/svg">
<path d="M17.7351 16.7994C17.4205 17.3895 16.9881 17.8816 16.4408 18.2848C15.8912 18.6867 15.2337 18.9861 14.4697 19.1836C14.1357 19.268 13.7859 19.3266 13.4308 19.3746V21.6H10.7748V19.4192C10.0183 19.3553 9.29527 19.2375 8.61442 19.05C7.57496 18.7652 6.21382 17.6157 6.21382 17.6157C6.09723 17.5477 6.01987 17.4282 6.00348 17.2957C5.9865 17.1621 6.03221 17.0274 6.12772 16.9324L7.45837 15.6012C7.60192 15.4594 7.8246 15.4324 7.99683 15.5379C7.99683 15.5379 8.99295 16.4028 9.74763 16.609C10.5023 16.8141 11.2512 16.9172 11.9982 16.9172C12.9404 16.9172 13.7191 16.7508 14.3367 16.418C14.9554 16.0828 15.2637 15.5649 15.2637 14.857C15.2637 14.3473 15.1125 13.9453 14.8072 13.65C14.5031 13.357 13.9887 13.1725 13.2627 13.0916L10.879 12.8865C9.46751 12.7488 8.37885 12.355 7.61418 11.7099C6.8472 11.0625 6.46635 10.0804 6.46635 8.76794C6.46635 8.04137 6.61282 7.3945 6.90757 6.82555C7.20288 6.2566 7.60368 5.77615 8.11402 5.38472C8.6238 4.99214 9.21795 4.69799 9.89411 4.50231C10.1771 4.42026 10.4736 4.36637 10.7748 4.31714V2.40002H13.4308V4.27855C14.0507 4.33949 14.6408 4.43909 15.1898 4.59029C16.1214 4.84457 17.1 5.60984 17.1 5.60984C17.2224 5.67314 17.3056 5.79265 17.3267 5.92859C17.3478 6.06689 17.3027 6.20282 17.206 6.30242L15.958 7.56921C15.825 7.70399 15.6193 7.73912 15.4494 7.65126C15.4494 7.65126 14.7105 7.1251 14.0718 6.95867C13.4337 6.79225 12.7634 6.70787 12.0574 6.70787C11.1345 6.70787 10.4525 6.88484 10.0125 7.23696C9.57067 7.59145 9.35152 8.05199 9.35152 8.61977C9.35152 9.13131 9.50561 9.5227 9.82143 9.79574C10.1349 10.0711 10.664 10.2498 11.4099 10.3254L13.4988 10.5035C15.0474 10.6406 16.2199 11.052 17.0138 11.7381C17.8089 12.4254 18.2056 13.4262 18.2056 14.7387C18.2056 15.5256 18.0486 16.2106 17.7351 16.7994Z" fill="#2667FF"/>
</svg>
