<svg width="30" height="30" viewBox="0 0 30 30" fill="none" xmlns="http://www.w3.org/2000/svg">
<path d="M26.7626 10.325L25.7126 12.6C25.6104 12.8146 25.4491 12.9956 25.2476 13.1218C25.0461 13.248 24.8128 13.3142 24.5751 13.3125C24.394 13.3134 24.2149 13.2751 24.0501 13.2L21.7751 12.1375C21.5487 12.0218 21.363 11.8399 21.2427 11.6159C21.1224 11.392 21.0732 11.1367 21.1018 10.8841C21.1303 10.6315 21.2351 10.3936 21.4023 10.2022C21.5695 10.0107 21.7911 9.87475 22.0376 9.81247C21.8005 9.44016 21.5373 9.0851 21.2501 8.74997C20.2986 7.81544 19.1496 7.10635 17.8876 6.67497C17.726 6.62884 17.5753 6.55059 17.4446 6.44489C17.3139 6.33919 17.2059 6.20821 17.1269 6.0598C17.048 5.91138 16.9999 5.74858 16.9853 5.58112C16.9708 5.41366 16.9902 5.24499 17.0423 5.08519C17.0944 4.92539 17.1783 4.77775 17.2888 4.6511C17.3993 4.52445 17.5342 4.4214 17.6855 4.34809C17.8368 4.27479 18.0013 4.23274 18.1691 4.22447C18.337 4.21621 18.5049 4.24188 18.6626 4.29997C20.2997 4.85004 21.7881 5.76962 23.0126 6.98747C23.6413 7.62327 24.1911 8.33256 24.6501 9.09997C24.83 8.86082 25.0897 8.69413 25.382 8.6302C25.6743 8.56626 25.9799 8.60932 26.2432 8.75156C26.5065 8.89379 26.71 9.12576 26.8168 9.40531C26.9236 9.68485 26.9265 9.99343 26.8251 10.275L26.7626 10.325ZM12.1751 23.275C10.9177 22.8582 9.76902 22.1665 8.8126 21.25C8.50614 20.936 8.22603 20.5974 7.9751 20.2375C8.15723 20.1974 8.32809 20.1172 8.47516 20.0025C8.62224 19.8879 8.74181 19.7418 8.8251 19.575C8.96594 19.2749 8.98184 18.9313 8.86933 18.6195C8.75681 18.3077 8.52508 18.0534 8.2251 17.9125L5.9501 16.85C5.64577 16.7249 5.30443 16.7249 5.0001 16.85C4.68751 16.9597 4.43124 17.189 4.2876 17.4875L3.2376 19.7625C3.09676 20.0625 3.08085 20.4062 3.19337 20.718C3.30589 21.0297 3.53761 21.284 3.8376 21.425C4.00706 21.4992 4.19008 21.5376 4.3751 21.5375C4.58659 21.5345 4.79385 21.4778 4.97749 21.3729C5.16113 21.268 5.31514 21.1181 5.4251 20.9375C5.87551 21.7074 6.42151 22.4172 7.0501 23.05C8.2746 24.2678 9.76304 25.1874 11.4001 25.7375C11.5257 25.7764 11.6561 25.7974 11.7876 25.8C12.0846 25.7993 12.3717 25.6929 12.5974 25.4998C12.8231 25.3067 12.9727 25.0396 13.0193 24.7462C13.0659 24.4529 13.0066 24.1525 12.8519 23.899C12.6972 23.6454 12.4573 23.4552 12.1751 23.3625V23.275Z" fill="#2667FF"/>
<path opacity="0.4" d="M27.5 21.25C27.5 22.4861 27.1334 23.6945 26.4467 24.7223C25.7599 25.7501 24.7838 26.5512 23.6418 27.0242C22.4997 27.4973 21.2431 27.6211 20.0307 27.3799C18.8183 27.1388 17.7047 26.5435 16.8306 25.6694C15.9565 24.7953 15.3613 23.6817 15.1201 22.4693C14.8789 21.2569 15.0027 20.0003 15.4758 18.8582C15.9488 17.7162 16.7499 16.7401 17.7777 16.0533C18.8055 15.3666 20.0139 15 21.25 15C22.9076 15 24.4973 15.6585 25.6694 16.8306C26.8415 18.0027 27.5 19.5924 27.5 21.25ZM8.75 2.5C7.51387 2.5 6.3055 2.86656 5.27769 3.55331C4.24988 4.24007 3.4488 5.21619 2.97576 6.35823C2.50271 7.50027 2.37894 8.75693 2.62009 9.96931C2.86125 11.1817 3.45651 12.2953 4.33059 13.1694C5.20466 14.0435 6.31831 14.6388 7.53069 14.8799C8.74307 15.1211 9.99974 14.9973 11.1418 14.5242C12.2838 14.0512 13.2599 13.2501 13.9467 12.2223C14.6334 11.1945 15 9.98613 15 8.75C15 7.92924 14.8383 7.11651 14.5243 6.35823C14.2102 5.59994 13.7498 4.91095 13.1694 4.33058C12.5891 3.75022 11.9001 3.28984 11.1418 2.97575C10.3835 2.66166 9.57076 2.5 8.75 2.5Z" fill="#2667FF"/>
<path d="M18.7498 21.3794C18.7498 21.2794 18.7808 21.1941 18.8427 21.1235C18.9046 21.05 18.9961 21.0132 19.117 21.0132H19.5948V19.9721C19.5948 19.6956 19.6361 19.4338 19.7187 19.1868C19.8012 18.9368 19.9266 18.7191 20.0947 18.5338C20.2628 18.3456 20.4737 18.1971 20.7273 18.0882C20.981 17.9794 21.2788 17.925 21.621 17.925C21.8569 17.925 22.0678 17.9559 22.2536 18.0176C22.4423 18.0765 22.609 18.1574 22.7535 18.2603C22.901 18.3632 23.0278 18.4853 23.134 18.6265C23.2431 18.7647 23.336 18.9147 23.4127 19.0765L22.9747 19.3544C22.8803 19.4015 22.7963 19.425 22.7225 19.425C22.6134 19.425 22.5161 19.3765 22.4305 19.2794C22.3745 19.2147 22.3185 19.1559 22.2624 19.1029C22.2093 19.0471 22.1504 19 22.0855 18.9618C22.0235 18.9235 21.9542 18.8941 21.8775 18.8735C21.8038 18.8529 21.7183 18.8426 21.621 18.8426C21.3172 18.8426 21.0901 18.9426 20.9397 19.1426C20.7893 19.3397 20.714 19.6147 20.714 19.9676V21.0132H22.5234V21.4456C22.5234 21.5162 22.494 21.5809 22.435 21.6397C22.3789 21.6985 22.3052 21.7279 22.2138 21.7279H20.714V22.5838C20.714 22.7779 20.6772 22.9515 20.6034 23.1044C20.5327 23.2544 20.4339 23.3941 20.307 23.5235C20.5253 23.4735 20.7421 23.4485 20.9574 23.4485H23.5498V23.9074C23.5498 23.9603 23.538 24.0147 23.5144 24.0706C23.4938 24.1265 23.4628 24.1779 23.4215 24.225C23.3802 24.2691 23.3301 24.3059 23.2711 24.3353C23.2151 24.3618 23.1516 24.375 23.0809 24.375H18.8383V23.6912C18.9386 23.6676 19.0344 23.6353 19.1258 23.5941C19.2173 23.55 19.2969 23.4956 19.3647 23.4309C19.4355 23.3632 19.4916 23.2853 19.5328 23.1971C19.5741 23.1059 19.5948 23 19.5948 22.8794V21.7279H18.7498V21.3794Z" fill="#2667FF"/>
<path d="M8.05005 12.1262C7.70356 12.0783 7.37779 11.9825 7.07276 11.8387C6.77068 11.695 6.51303 11.5168 6.2998 11.3042L6.63742 10.7966C6.66703 10.7517 6.70553 10.7157 6.75291 10.6888C6.80326 10.6588 6.85509 10.6439 6.90839 10.6439C6.97355 10.6439 7.04314 10.6678 7.11718 10.7157C7.19122 10.7607 7.27562 10.8146 7.37039 10.8774C7.46516 10.9403 7.57325 11.0032 7.69467 11.0661C7.81609 11.129 7.95973 11.1754 8.12557 11.2054L8.29438 9.19295C8.08411 9.13306 7.87532 9.06269 7.66802 8.98183C7.46367 8.90098 7.27858 8.79467 7.11274 8.6629C6.94985 8.52814 6.81807 8.35894 6.71738 8.15531C6.61669 7.95167 6.56634 7.69713 6.56634 7.39167C6.56634 7.16408 6.61076 6.94247 6.69961 6.72686C6.79141 6.50825 6.9232 6.3136 7.09497 6.1429C7.26673 5.97221 7.47848 5.83146 7.73021 5.72066C7.98194 5.60985 8.27068 5.54697 8.59645 5.53199L8.64531 4.966C8.65124 4.89413 8.68085 4.82975 8.73416 4.77285C8.78747 4.71595 8.85706 4.6875 8.94294 4.6875H9.34719L9.27167 5.57242C9.58559 5.62333 9.85657 5.71317 10.0846 5.84194C10.3126 5.97071 10.5111 6.11595 10.6799 6.27766L10.4133 6.68643C10.3719 6.74632 10.3304 6.79124 10.2889 6.82119C10.2475 6.85114 10.1971 6.86611 10.1379 6.86611C10.0935 6.86611 10.0402 6.85263 9.97799 6.82568C9.91876 6.79574 9.84916 6.7613 9.7692 6.72237C9.6922 6.68044 9.60632 6.63852 9.51155 6.59659C9.41678 6.55467 9.31165 6.52023 9.19615 6.49328L9.04067 8.35295C9.2539 8.41884 9.46417 8.49221 9.67147 8.57306C9.88174 8.65092 10.0698 8.75274 10.2356 8.87852C10.4044 9.00429 10.5407 9.16151 10.6443 9.35017C10.748 9.53584 10.7998 9.76943 10.7998 10.0509C10.7998 10.3294 10.7539 10.5915 10.6621 10.837C10.5703 11.0796 10.4355 11.2952 10.2579 11.4839C10.0831 11.6695 9.86693 11.8208 9.60928 11.9376C9.35163 12.0543 9.05696 12.1247 8.72527 12.1487L8.67197 12.809C8.66604 12.8779 8.63643 12.9408 8.58312 12.9977C8.52981 13.0576 8.46022 13.0875 8.37434 13.0875H7.97009L8.05005 12.1262ZM9.76032 10.2216C9.76032 10.1078 9.73959 10.009 9.69813 9.92515C9.65963 9.8383 9.60336 9.76194 9.52932 9.69606C9.45825 9.63017 9.37384 9.57328 9.27611 9.52536C9.17838 9.47745 9.07177 9.43402 8.95627 9.39509L8.80523 11.2188C9.11915 11.1769 9.35607 11.0706 9.51599 10.8999C9.67888 10.7262 9.76032 10.5001 9.76032 10.2216ZM7.60138 7.28386C7.60138 7.39766 7.62063 7.49798 7.65913 7.58483C7.69763 7.67167 7.75094 7.74953 7.81905 7.81841C7.89013 7.88429 7.97305 7.94418 8.06782 7.99809C8.16259 8.049 8.26624 8.09541 8.37878 8.13734L8.51649 6.47531C8.35361 6.49627 8.21441 6.53221 8.09892 6.58312C7.98342 6.63103 7.88865 6.69092 7.81461 6.76279C7.74057 6.83467 7.68579 6.91552 7.65025 7.00536C7.61767 7.09221 7.60138 7.18504 7.60138 7.28386Z" fill="#2667FF"/>
</svg>
