<svg width="116" height="116" viewBox="0 0 116 116" fill="none" xmlns="http://www.w3.org/2000/svg">
<circle cx="58" cy="58" r="56.5" stroke="url(#paint0_linear_1_658)" stroke-width="3"/>
<circle cx="58" cy="58" r="50" fill="#2667FF"/>
<path d="M46.3333 31.75H45.75C40.8495 31.75 38.3993 31.75 36.5276 32.7037C34.8812 33.5426 33.5426 34.8812 32.7037 36.5276C31.75 38.3993 31.75 40.8495 31.75 45.75V46.3333M46.3333 84.25H45.75C40.8495 84.25 38.3993 84.25 36.5276 83.2963C34.8812 82.4574 33.5426 81.119 32.7037 79.4725C31.75 77.6006 31.75 75.1506 31.75 70.25V69.6667M84.25 46.3333V45.75C84.25 40.8495 84.25 38.3993 83.2963 36.5276C82.4574 34.8812 81.119 33.5426 79.4725 32.7037C77.6006 31.75 75.1506 31.75 70.25 31.75H69.6667M84.25 69.6667V70.25C84.25 75.1506 84.25 77.6006 83.2963 79.4725C82.4574 81.119 81.119 82.4574 79.4725 83.2963C77.6006 84.25 75.1506 84.25 70.25 84.25H69.6667M44.875 46.3333V50.7083M71.125 46.3333V50.7083M55.0833 59.7503C57.4167 59.7503 59.4583 57.7086 59.4583 55.3753V46.3333M67.3339 67.3333C62.0839 72.5833 53.6256 72.5833 48.3756 67.3333" stroke="white" stroke-width="4" stroke-linecap="round" stroke-linejoin="round"/>
<defs>
<linearGradient id="paint0_linear_1_658" x1="58" y1="0" x2="58" y2="116" gradientUnits="userSpaceOnUse">
<stop stop-color="#2667FF" stop-opacity="0.25"/>
<stop offset="1" stop-color="#2667FF" stop-opacity="0"/>
</linearGradient>
</defs>
</svg>
