<svg width="248" height="254" viewBox="0 0 248 254" fill="none" xmlns="http://www.w3.org/2000/svg">
<path opacity="0.5" d="M147 253C174.851 253 217.745 253 237.019 253C242.542 253 247 248.545 247 243.022C247 223.639 247 180.401 247 153" stroke="#E9ECEF" stroke-width="2" stroke-miterlimit="10"/>
<path opacity="0.5" d="M101 1C73.1493 1 30.2551 1 10.981 1C5.45811 1 1 5.45531 1 10.9782C1 30.3606 1 73.5987 1 101" stroke="#E9ECEF" stroke-width="2" stroke-miterlimit="10"/>
<g opacity="0.2">
<path d="M180.611 81.0074L181.11 80.9685L181.11 80.9655L180.611 81.0074ZM130.127 34L130.136 33.5H130.127V34ZM116.211 34V33.4999L116.202 33.5001L116.211 34ZM65.7019 81.0074L65.2036 80.9651L65.2033 80.9694L65.7019 81.0074ZM67.3839 103.707L67.872 103.599L67.8714 103.596L67.3839 103.707ZM68.5117 110.964L69.0099 110.922L69.0097 110.919L68.5117 110.964ZM76.5637 168.142L76.11 168.352L76.1101 168.352L76.5637 168.142ZM119.226 208.868V208.368H119.215L119.205 208.368L119.226 208.868ZM127.126 208.868L127.148 208.368L127.137 208.368H127.126V208.868ZM169.789 168.142L170.242 168.353L170.243 168.352L169.789 168.142ZM177.846 110.964L177.348 110.92L177.348 110.922L177.846 110.964ZM178.974 103.707L178.486 103.597L178.486 103.598L178.974 103.707ZM68.6882 113.053L69.1864 113.011L69.1739 112.864L69.0833 112.747L68.6882 113.053ZM64.1081 110.052L64.1903 109.559L64.1893 109.559L64.1081 110.052ZM59.8467 128.638L60.3348 128.529L60.3346 128.528L59.8467 128.638ZM72.5965 150.704L72.5846 151.204L73.1756 151.218L73.0914 150.633L72.5965 150.704ZM182.205 110.042L182.124 109.549L182.123 109.549L182.205 110.042ZM177.625 113.044L177.23 112.737L177.139 112.854L177.127 113.001L177.625 113.044ZM173.702 150.709L173.207 150.637L173.122 151.224L173.715 151.209L173.702 150.709ZM186.452 128.642L185.964 128.533L185.964 128.534L186.452 128.642ZM123.659 177.405C123.659 177.129 123.435 176.905 123.159 176.905C122.883 176.905 122.659 177.129 122.659 177.405H123.159H123.659ZM122.659 220.22C122.659 220.496 122.883 220.72 123.159 220.72C123.435 220.72 123.659 220.496 123.659 220.22H123.159H122.659ZM123.659 111.205C123.659 110.929 123.435 110.705 123.159 110.705C122.883 110.705 122.659 110.929 122.659 111.205H123.159H123.659ZM123.159 152.641L122.88 153.056C123.033 153.159 123.231 153.17 123.394 153.083C123.557 152.996 123.659 152.826 123.659 152.641H123.159ZM123.659 34.1961C123.659 33.92 123.435 33.6961 123.159 33.6961C122.883 33.6961 122.659 33.92 122.659 34.1961H123.159H123.659ZM122.659 55.6059C122.659 55.8821 122.883 56.1059 123.159 56.1059C123.435 56.1059 123.659 55.8821 123.659 55.6059H123.159H122.659ZM101.274 169.569C100.997 169.569 100.774 169.793 100.774 170.069C100.774 170.345 100.997 170.569 101.274 170.569V170.069V169.569ZM145.04 170.569C145.316 170.569 145.54 170.345 145.54 170.069C145.54 169.793 145.316 169.569 145.04 169.569V170.069V170.569ZM111.405 117.467L111.583 117.934C111.757 117.867 111.88 117.709 111.901 117.523C111.923 117.337 111.838 117.155 111.683 117.051L111.405 117.467ZM103.304 120.551V121.051C103.364 121.051 103.425 121.04 103.482 121.019L103.304 120.551ZM95.0948 120.551L94.868 120.997C94.9383 121.033 95.016 121.051 95.0948 121.051V120.551ZM87.2782 116.574L87.025 116.143C86.8675 116.236 86.7729 116.407 86.7784 116.589C86.7839 116.772 86.8886 116.937 87.0515 117.02L87.2782 116.574ZM94.879 112.112V111.612C94.79 111.612 94.7026 111.636 94.6259 111.681L94.879 112.112ZM103.387 112.112L103.659 111.692C103.578 111.64 103.483 111.612 103.387 111.612V112.112ZM103.637 112.274L103.915 111.858L103.909 111.854L103.637 112.274ZM111.858 117.275C111.742 117.025 111.444 116.917 111.194 117.033C110.943 117.15 110.835 117.447 110.951 117.697L111.405 117.486L111.858 117.275ZM116.166 127.721L116.622 127.927C116.649 127.866 116.664 127.801 116.666 127.734L116.166 127.721ZM72.616 150.709L72.2152 150.41C72.0755 150.598 72.0842 150.857 72.2361 151.034C72.3881 151.212 72.6427 151.261 72.8494 151.152L72.616 150.709ZM95.4956 120.87C95.6607 120.648 95.6151 120.335 95.3937 120.17C95.1724 120.005 94.8591 120.051 94.694 120.272L95.0948 120.571L95.4956 120.87ZM94.4276 112.31C94.534 112.564 94.8269 112.685 95.0817 112.578C95.3365 112.472 95.4567 112.179 95.3503 111.924L94.8889 112.117L94.4276 112.31ZM87.1998 117.066C87.4711 117.117 87.7328 116.939 87.7843 116.668C87.8358 116.396 87.6576 116.135 87.3863 116.083L87.2931 116.574L87.1998 117.066ZM68.6882 113.044L68.3997 112.635C68.2358 112.751 68.157 112.954 68.1996 113.15C68.2422 113.346 68.3979 113.497 68.595 113.535L68.6882 113.044ZM110.493 100.77L110.887 100.461C110.803 100.355 110.68 100.286 110.545 100.272L110.493 100.77ZM108.163 145.35L107.708 145.143C107.679 145.208 107.663 145.278 107.663 145.35H108.163ZM108.163 149.807H107.663C107.663 149.996 107.77 150.168 107.938 150.253L108.163 149.807ZM117.486 149.395C117.762 149.395 117.986 149.171 117.986 148.895C117.986 148.619 117.762 148.395 117.486 148.395V148.895V149.395ZM112.013 148.895L111.725 148.486C111.547 148.612 111.47 148.838 111.536 149.046C111.602 149.254 111.795 149.395 112.013 149.395V148.895ZM114.749 146.968L115.029 146.553C114.857 146.437 114.631 146.439 114.461 146.559L114.749 146.968ZM123.038 166.803C123.306 166.87 123.577 166.707 123.644 166.439C123.711 166.171 123.548 165.9 123.28 165.833L123.159 166.318L123.038 166.803ZM100.97 170.064L100.814 169.589C100.617 169.654 100.48 169.834 100.47 170.041C100.461 170.249 100.58 170.441 100.771 170.523L100.97 170.064ZM116.662 176.851L116.463 177.31C116.51 177.33 116.56 177.343 116.61 177.349L116.662 176.851ZM123.149 177.062C122.873 177.062 122.649 177.286 122.649 177.562C122.649 177.838 122.873 178.062 123.149 178.062V177.562V177.062ZM108.535 145.679C108.72 145.474 108.703 145.158 108.498 144.973C108.293 144.788 107.977 144.805 107.792 145.01L108.163 145.345L108.535 145.679ZM116.858 177.315C117.114 177.212 117.238 176.921 117.135 176.665C117.032 176.409 116.741 176.284 116.485 176.387L116.671 176.851L116.858 177.315ZM123.038 156.319C123.306 156.386 123.577 156.223 123.644 155.955C123.711 155.687 123.548 155.416 123.28 155.349L123.159 155.834L123.038 156.319ZM123.174 111.2L122.992 111.666C123.109 111.711 123.238 111.711 123.355 111.666L123.174 111.2ZM123.159 94.7379L123.612 94.9489C123.676 94.8117 123.674 94.6529 123.608 94.5171L123.159 94.7379ZM112.013 72.0924L112.461 71.8715C112.443 71.8344 112.42 71.7996 112.393 71.7681L112.013 72.0924ZM87.2782 43.0572L87.6588 42.733C87.4999 42.5464 87.2291 42.5026 87.0194 42.6294C86.8097 42.7562 86.7229 43.0163 86.8143 43.2437L87.2782 43.0572ZM110.478 100.765L110.014 100.951C110.101 101.169 110.328 101.296 110.56 101.258C110.791 101.219 110.965 101.025 110.977 100.791L110.478 100.765ZM111.998 72.0924L111.586 71.8097C111.534 71.8855 111.504 71.9741 111.499 72.0659L111.998 72.0924ZM87.2782 43.0817L87.4455 42.6106C87.3142 42.5639 87.1694 42.5742 87.046 42.6389C86.9226 42.7036 86.8318 42.8169 86.7955 42.9514L87.2782 43.0817ZM78.7043 72.9133C78.6323 73.1799 78.79 73.4544 79.0566 73.5264C79.3232 73.5984 79.5977 73.4406 79.6697 73.174L79.187 73.0437L78.7043 72.9133ZM99.3465 73.0486L99.8111 73.2333C99.8723 73.0793 99.8533 72.9049 99.7602 72.7678C99.6672 72.6307 99.5122 72.5486 99.3465 72.5486V73.0486ZM66.8689 73.0486V72.5486C66.6727 72.5486 66.4946 72.6634 66.4135 72.8422C66.3325 73.021 66.3636 73.2306 66.493 73.3782L66.8689 73.0486ZM123.485 34.3788C123.695 34.1986 123.718 33.8829 123.538 33.6737C123.358 33.4645 123.042 33.4409 122.833 33.6212L123.159 34L123.485 34.3788ZM104.905 49.0631C104.695 49.2433 104.672 49.559 104.852 49.7682C105.032 49.9775 105.348 50.001 105.557 49.8208L105.231 49.4419L104.905 49.0631ZM104.108 114.304L103.608 114.301V114.304L104.108 114.304ZM95.3057 112.112V111.612C95.1206 111.612 94.9507 111.714 94.864 111.878L95.3057 112.112ZM103.397 112.112L103.669 111.692C103.588 111.64 103.493 111.612 103.397 111.612V112.112ZM103.647 112.274L104.097 112.055C104.057 111.973 103.995 111.904 103.919 111.854L103.647 112.274ZM99.4346 220.215L99.1232 220.606C99.273 220.725 99.4776 220.749 99.6502 220.666L99.4346 220.215ZM77.4266 202.699L77.7379 202.308C77.6017 202.199 77.4188 202.169 77.2551 202.229L77.4266 202.699ZM104.516 181.609C104.357 181.383 104.045 181.329 103.819 181.489C103.594 181.648 103.54 181.96 103.7 182.186L104.108 181.897L104.516 181.609ZM80.2158 220.312C80.2666 220.583 80.5278 220.762 80.7993 220.711C81.0707 220.661 81.2495 220.399 81.1987 220.128L80.7072 220.22L80.2158 220.312ZM78.6653 184.691C78.4018 184.608 78.1212 184.755 78.0384 185.018C77.9556 185.281 78.102 185.562 78.3654 185.645L78.5154 185.168L78.6653 184.691ZM59.1445 114.256C58.8719 114.3 58.6864 114.557 58.7302 114.829C58.774 115.102 59.0305 115.288 59.3032 115.244L59.2238 114.75L59.1445 114.256ZM62.3671 114.245L62.7968 113.989C62.692 113.813 62.4902 113.719 62.2878 113.751L62.3671 114.245ZM69.9042 126.911L70.3056 127.21C70.4259 127.048 70.4371 126.829 70.3339 126.656L69.9042 126.911ZM70.8392 140.114C71.0159 140.326 71.3312 140.354 71.5434 140.178C71.7555 140.001 71.7842 139.686 71.6074 139.473L71.2233 139.794L70.8392 140.114ZM60.1872 132.569C60.162 132.844 60.3646 133.087 60.6396 133.112C60.9145 133.138 61.1579 132.935 61.1831 132.66L60.6851 132.614L60.1872 132.569ZM61.5433 136.807L61.1897 136.454C61.0069 136.636 60.9936 136.929 61.1592 137.127L61.5433 136.807ZM72.6307 150.704L72.6499 150.205C72.3925 150.195 72.1697 150.382 72.1352 150.637C72.1007 150.893 72.2658 151.132 72.5166 151.191L72.6307 150.704ZM97.7428 156.589L98.2289 156.472C98.1848 156.288 98.0408 156.145 97.8569 156.102L97.7428 156.589ZM100.984 170.064L100.498 170.181C100.55 170.397 100.737 170.552 100.958 170.564C101.179 170.575 101.381 170.44 101.455 170.232L100.984 170.064ZM108.649 149.969C108.742 149.709 108.605 149.423 108.345 149.331C108.085 149.239 107.799 149.375 107.707 149.635L108.178 149.802L108.649 149.969ZM134.943 117.467L134.664 117.052C134.509 117.156 134.425 117.338 134.446 117.524C134.467 117.709 134.59 117.868 134.765 117.934L134.943 117.467ZM143.049 120.551L142.871 121.019C142.928 121.04 142.988 121.051 143.049 121.051V120.551ZM151.253 120.551V121.051C151.332 121.051 151.41 121.032 151.48 120.996L151.253 120.551ZM159.059 116.555L159.287 117C159.45 116.917 159.554 116.752 159.559 116.569C159.564 116.387 159.47 116.216 159.313 116.124L159.059 116.555ZM151.459 112.092L151.712 111.661C151.635 111.616 151.548 111.592 151.459 111.592V112.092ZM142.951 112.092V111.592C142.854 111.592 142.76 111.62 142.679 111.672L142.951 112.092ZM142.7 112.254L142.429 111.834L142.422 111.839L142.7 112.254ZM135.396 117.697C135.513 117.447 135.404 117.15 135.154 117.033C134.903 116.917 134.606 117.025 134.489 117.275L134.943 117.486L135.396 117.697ZM130.181 127.721L129.681 127.734C129.683 127.801 129.698 127.866 129.726 127.927L130.181 127.721ZM173.736 150.709L173.503 151.152C173.71 151.261 173.964 151.212 174.116 151.034C174.268 150.857 174.277 150.598 174.137 150.41L173.736 150.709ZM151.658 120.272C151.493 120.051 151.18 120.005 150.959 120.17C150.737 120.335 150.692 120.648 150.857 120.87L151.258 120.571L151.658 120.272ZM150.997 111.924C150.891 112.179 151.011 112.472 151.266 112.578C151.521 112.685 151.814 112.564 151.92 112.31L151.459 112.117L150.997 111.924ZM158.966 116.083C158.695 116.135 158.517 116.396 158.568 116.668C158.62 116.939 158.881 117.117 159.153 117.066L159.059 116.574L158.966 116.083ZM177.659 113.044L177.753 113.535C177.95 113.497 178.105 113.346 178.148 113.15C178.191 112.954 178.112 112.751 177.948 112.635L177.659 113.044ZM135.855 100.77L135.803 100.272C135.668 100.286 135.545 100.355 135.461 100.461L135.855 100.77ZM138.184 145.35H138.684C138.684 145.278 138.669 145.208 138.64 145.143L138.184 145.35ZM138.184 149.807L138.41 150.253C138.578 150.168 138.684 149.996 138.684 149.807H138.184ZM128.867 148.395C128.591 148.395 128.367 148.619 128.367 148.895C128.367 149.171 128.591 149.395 128.867 149.395V148.895V148.395ZM134.335 148.895V149.395C134.553 149.395 134.746 149.254 134.811 149.046C134.877 148.838 134.801 148.612 134.623 148.486L134.335 148.895ZM131.598 146.968L131.886 146.559C131.717 146.439 131.491 146.437 131.319 146.553L131.598 146.968ZM122.914 152.227C122.685 152.381 122.624 152.692 122.779 152.921C122.933 153.15 123.244 153.21 123.473 153.056L123.193 152.641L122.914 152.227ZM123.072 165.833C122.804 165.9 122.641 166.171 122.708 166.439C122.775 166.707 123.047 166.87 123.315 166.803L123.193 166.318L123.072 165.833ZM145.378 170.064L145.577 170.523C145.767 170.441 145.887 170.249 145.878 170.041C145.868 169.834 145.731 169.654 145.533 169.589L145.378 170.064ZM129.686 176.851L129.738 177.349C129.788 177.343 129.838 177.33 129.885 177.31L129.686 176.851ZM123.203 178.062C123.479 178.062 123.703 177.838 123.703 177.562C123.703 177.286 123.479 177.062 123.203 177.062V177.562V178.062ZM138.556 145.01C138.371 144.805 138.055 144.788 137.849 144.973C137.644 145.158 137.628 145.474 137.813 145.679L138.184 145.345L138.556 145.01ZM129.863 176.387C129.606 176.284 129.315 176.409 129.212 176.665C129.109 176.921 129.234 177.212 129.49 177.315L129.676 176.851L129.863 176.387ZM123.072 155.349C122.804 155.416 122.641 155.687 122.708 155.955C122.775 156.223 123.047 156.386 123.315 156.319L123.193 155.834L123.072 155.349ZM123.193 94.7379L122.745 94.5168C122.678 94.6527 122.676 94.8115 122.74 94.9488L123.193 94.7379ZM159.079 43.0572L159.543 43.2439C159.634 43.0165 159.548 42.7563 159.338 42.6294C159.128 42.5025 158.857 42.5464 158.698 42.7331L159.079 43.0572ZM135.855 100.765L135.356 100.791C135.368 101.025 135.541 101.219 135.773 101.258C136.004 101.296 136.231 101.169 136.319 100.951L135.855 100.765ZM159.059 43.0817L159.542 42.9513C159.506 42.8168 159.415 42.7036 159.292 42.6389C159.168 42.5742 159.023 42.564 158.892 42.6106L159.059 43.0817ZM166.678 73.1986C166.75 73.4652 167.024 73.6229 167.291 73.5509C167.557 73.4789 167.715 73.2044 167.643 72.9378L167.16 73.0682L166.678 73.1986ZM147.001 73.0486V72.5486C146.835 72.5486 146.68 72.6307 146.587 72.7678C146.494 72.9049 146.475 73.0793 146.536 73.2333L147.001 73.0486ZM179.479 73.0486L179.855 73.3782C179.984 73.2306 180.015 73.021 179.934 72.8422C179.853 72.6634 179.675 72.5486 179.479 72.5486V73.0486ZM123.52 33.6212C123.311 33.441 122.995 33.4644 122.815 33.6736C122.634 33.8828 122.658 34.1986 122.867 34.3788L123.193 34L123.52 33.6212ZM140.79 49.8207C140.999 50.001 141.315 49.9775 141.495 49.7683C141.676 49.5591 141.652 49.2434 141.443 49.0631L141.117 49.4419L140.79 49.8207ZM142.24 114.304H142.74L142.74 114.301L142.24 114.304ZM151.586 114.304L151.086 114.302V114.304H151.586ZM151.042 112.112L151.483 111.876C151.396 111.713 151.226 111.612 151.042 111.612V112.112ZM142.951 112.112V111.612C142.854 111.612 142.76 111.64 142.679 111.692L142.951 112.112ZM142.701 112.274L142.429 111.854C142.352 111.904 142.291 111.973 142.251 112.055L142.701 112.274ZM146.913 220.215L146.697 220.666C146.87 220.749 147.074 220.725 147.224 220.606L146.913 220.215ZM168.926 202.699L169.098 202.23C168.934 202.169 168.751 202.199 168.614 202.308L168.926 202.699ZM142.648 182.186C142.807 181.96 142.754 181.648 142.528 181.489C142.303 181.329 141.991 181.383 141.831 181.609L142.24 181.897L142.648 182.186ZM165.154 220.128C165.103 220.399 165.282 220.661 165.553 220.711C165.824 220.762 166.086 220.583 166.137 220.312L165.645 220.22L165.154 220.128ZM167.982 185.645C168.246 185.562 168.392 185.281 168.309 185.018C168.226 184.755 167.946 184.608 167.682 184.691L167.832 185.168L167.982 185.645ZM187.049 115.244C187.322 115.288 187.579 115.102 187.622 114.829C187.666 114.557 187.48 114.3 187.208 114.256L187.129 114.75L187.049 115.244ZM183.98 114.245L184.06 113.751C183.857 113.719 183.656 113.813 183.551 113.989L183.98 114.245ZM176.443 126.911L176.014 126.656C175.91 126.829 175.922 127.048 176.042 127.21L176.443 126.911ZM174.745 139.473C174.568 139.686 174.597 140.001 174.809 140.178C175.021 140.354 175.336 140.326 175.513 140.114L175.129 139.794L174.745 139.473ZM185.164 132.66C185.19 132.935 185.433 133.138 185.708 133.112C185.983 133.087 186.185 132.844 186.16 132.569L185.662 132.614L185.164 132.66ZM184.809 136.807L185.193 137.127C185.359 136.929 185.345 136.637 185.163 136.454L184.809 136.807ZM173.722 150.704L173.836 151.191C174.087 151.132 174.252 150.893 174.217 150.638C174.183 150.382 173.96 150.195 173.703 150.205L173.722 150.704ZM148.61 156.589L148.495 156.102C148.312 156.145 148.168 156.288 148.123 156.472L148.61 156.589ZM145.363 170.064L144.892 170.232C144.966 170.44 145.168 170.575 145.389 170.564C145.61 170.552 145.798 170.397 145.849 170.182L145.363 170.064ZM138.641 149.635C138.548 149.375 138.262 149.239 138.002 149.331C137.742 149.423 137.606 149.709 137.698 149.969L138.169 149.802L138.641 149.635ZM116.152 127.216C115.876 127.216 115.652 127.439 115.652 127.716C115.652 127.992 115.876 128.216 116.152 128.216V127.716V127.216ZM130.167 128.216C130.443 128.216 130.667 127.992 130.667 127.716C130.667 127.439 130.443 127.216 130.167 127.216V127.716V128.216ZM180.611 81.0074L181.11 80.9655C179.15 57.6596 166.396 45.7701 154.134 39.7308C148.013 36.7161 142.019 35.1596 137.558 34.3562C135.326 33.9543 133.476 33.7404 132.181 33.6269C131.534 33.5702 131.025 33.5385 130.677 33.521C130.503 33.5122 130.369 33.507 130.278 33.504C130.232 33.5025 130.198 33.5015 130.174 33.5009C130.162 33.5006 130.153 33.5004 130.146 33.5003C130.143 33.5002 130.141 33.5002 130.139 33.5001C130.138 33.5001 130.138 33.5001 130.137 33.5001C130.136 33.5001 130.136 33.5001 130.127 34C130.119 34.4999 130.119 34.4999 130.119 34.4999C130.119 34.4999 130.119 34.4999 130.12 34.4999C130.121 34.5 130.123 34.5 130.125 34.5001C130.13 34.5002 130.138 34.5003 130.149 34.5006C130.17 34.5011 130.202 34.502 130.245 34.5035C130.33 34.5063 130.458 34.5113 130.627 34.5197C130.963 34.5366 131.459 34.5675 132.094 34.6231C133.362 34.7343 135.183 34.9445 137.381 35.3404C141.778 36.1323 147.677 37.6655 153.692 40.6279C165.701 46.5427 178.189 58.1569 180.113 81.0493L180.611 81.0074ZM130.127 34V33.5H116.211V34V34.5H130.127V34ZM116.211 34C116.202 33.5001 116.201 33.5001 116.201 33.5001C116.2 33.5001 116.2 33.5001 116.199 33.5001C116.197 33.5002 116.195 33.5002 116.191 33.5003C116.185 33.5004 116.176 33.5006 116.164 33.5009C116.14 33.5015 116.106 33.5025 116.06 33.504C115.969 33.507 115.835 33.5122 115.661 33.521C115.313 33.5385 114.805 33.5702 114.157 33.6269C112.863 33.7404 111.013 33.9543 108.782 34.3562C104.321 35.1596 98.3278 36.7161 92.2064 39.7308C79.9434 45.77 67.1827 57.6593 65.2037 80.9651L65.7019 81.0074L66.2001 81.0497C68.144 58.1571 80.6376 46.5428 92.6482 40.6279C98.6636 37.6655 104.562 36.1323 108.959 35.3404C111.156 34.9445 112.976 34.7343 114.245 34.6231C114.879 34.5675 115.375 34.5366 115.711 34.5197C115.88 34.5113 116.008 34.5063 116.093 34.5035C116.136 34.502 116.168 34.5011 116.189 34.5006C116.2 34.5003 116.208 34.5002 116.213 34.5001C116.215 34.5 116.217 34.5 116.218 34.4999C116.219 34.4999 116.219 34.4999 116.219 34.4999C116.219 34.4999 116.219 34.4999 116.211 34ZM65.7019 81.0074L65.2033 80.9694C64.6208 88.6274 65.1915 96.3294 66.8963 103.818L67.3839 103.707L67.8714 103.596C66.1888 96.205 65.6255 88.6034 66.2004 81.0453L65.7019 81.0074ZM67.3839 103.707L66.8957 103.815C67.4208 106.187 67.7943 108.59 68.0138 111.01L68.5117 110.964L69.0097 110.919C68.7864 108.457 68.4064 106.012 67.872 103.599L67.3839 103.707ZM68.5117 110.964L68.0136 111.007C68.663 118.572 69.6335 130.626 70.9635 141.912C71.6286 147.556 72.3843 153.014 73.2361 157.629C74.0852 162.23 75.0376 166.039 76.11 168.352L76.5637 168.142L77.0173 167.932C76.0032 165.744 75.0683 162.047 74.2195 157.448C73.3733 152.863 72.6205 147.429 71.9567 141.795C70.6289 130.528 69.66 118.495 69.0099 110.922L68.5117 110.964ZM76.5637 168.142L76.1101 168.352C85.8188 189.295 96.5455 199.561 104.893 204.586C109.066 207.097 112.635 208.294 115.172 208.862C116.44 209.146 117.45 209.273 118.147 209.328C118.496 209.356 118.766 209.366 118.952 209.369C119.045 209.37 119.116 209.37 119.166 209.369C119.191 209.369 119.21 209.369 119.224 209.368C119.231 209.368 119.236 209.368 119.24 209.368C119.242 209.368 119.244 209.368 119.245 209.367C119.246 209.367 119.247 209.367 119.247 209.367C119.248 209.367 119.248 209.367 119.226 208.868C119.205 208.368 119.205 208.368 119.205 208.368C119.205 208.368 119.205 208.368 119.205 208.368C119.205 208.368 119.205 208.368 119.204 208.368C119.202 208.368 119.199 208.368 119.195 208.369C119.186 208.369 119.172 208.369 119.152 208.37C119.112 208.37 119.05 208.37 118.968 208.369C118.802 208.366 118.553 208.357 118.227 208.331C117.573 208.279 116.61 208.159 115.391 207.886C112.952 207.34 109.484 206.182 105.409 203.729C97.2634 198.826 86.6587 188.73 77.0173 167.932L76.5637 168.142ZM119.226 208.868V209.368H127.126V208.868V208.368H119.226V208.868ZM127.126 208.868C127.105 209.367 127.105 209.367 127.106 209.367C127.106 209.367 127.107 209.367 127.107 209.367C127.109 209.368 127.11 209.368 127.112 209.368C127.116 209.368 127.122 209.368 127.129 209.368C127.142 209.369 127.162 209.369 127.186 209.369C127.236 209.37 127.308 209.37 127.401 209.369C127.586 209.366 127.856 209.356 128.205 209.328C128.902 209.273 129.911 209.146 131.178 208.862C133.714 208.294 137.282 207.097 141.454 204.586C149.8 199.561 160.526 189.295 170.242 168.353L169.789 168.142L169.335 167.932C159.687 188.73 149.082 198.826 140.938 203.729C136.864 206.182 133.397 207.34 130.96 207.886C129.741 208.159 128.778 208.279 128.125 208.331C127.799 208.357 127.55 208.366 127.385 208.369C127.302 208.37 127.241 208.37 127.201 208.37C127.181 208.369 127.167 208.369 127.158 208.369C127.153 208.368 127.15 208.368 127.149 208.368C127.148 208.368 127.147 208.368 127.147 208.368C127.147 208.368 127.147 208.368 127.147 208.368C127.148 208.368 127.148 208.368 127.126 208.868ZM169.789 168.142L170.243 168.352C171.315 166.039 172.268 162.23 173.117 157.629C173.97 153.014 174.726 147.556 175.392 141.912C176.723 130.626 177.695 118.572 178.344 111.007L177.846 110.964L177.348 110.922C176.698 118.494 175.727 130.528 174.398 141.795C173.734 147.429 172.981 152.863 172.134 157.448C171.285 162.047 170.349 165.744 169.335 167.932L169.789 168.142ZM177.846 110.964L178.344 111.009C178.558 108.589 178.932 106.186 179.462 103.816L178.974 103.707L178.486 103.598C177.946 106.011 177.566 108.457 177.348 110.92L177.846 110.964ZM178.974 103.707L179.461 103.817C181.151 96.3262 181.707 88.6242 181.11 80.9685L180.611 81.0074L180.113 81.0462C180.702 88.6022 180.154 96.2037 178.486 103.597L178.974 103.707ZM78.6476 172.502C78.1476 172.502 78.1476 172.502 78.1476 172.502C78.1476 172.502 78.1476 172.502 78.1476 172.503C78.1476 172.503 78.1476 172.504 78.1476 172.506C78.1476 172.508 78.1476 172.513 78.1476 172.518C78.1476 172.529 78.1476 172.546 78.1475 172.568C78.1475 172.612 78.1475 172.677 78.1473 172.763C78.1471 172.934 78.1466 173.186 78.1456 173.509C78.1436 174.154 78.1397 175.083 78.1318 176.217C78.116 178.485 78.0845 181.573 78.0214 184.849C77.8948 191.423 77.6419 198.699 77.1442 201.695L77.6374 201.777L78.1306 201.859C78.6431 198.774 78.8952 191.412 79.0212 184.869C79.0844 181.587 79.116 178.495 79.1318 176.224C79.1397 175.089 79.1436 174.158 79.1456 173.512C79.1466 173.188 79.1471 172.936 79.1473 172.764C79.1475 172.678 79.1475 172.613 79.1475 172.569C79.1476 172.547 79.1476 172.53 79.1476 172.519C79.1476 172.513 79.1476 172.509 79.1476 172.506C79.1476 172.504 79.1476 172.503 79.1476 172.503C79.1476 172.502 79.1476 172.502 79.1476 172.502C79.1476 172.502 79.1476 172.502 78.6476 172.502ZM77.6374 201.777L77.1442 201.695C76.9055 203.132 76.1271 204.985 75.0584 206.988C73.9955 208.98 72.6683 211.079 71.3674 212.995C70.0673 214.911 68.7979 216.639 67.8533 217.888C67.3811 218.512 66.9904 219.016 66.718 219.364C66.5819 219.538 66.4753 219.673 66.4029 219.764C66.3667 219.809 66.339 219.844 66.3205 219.867C66.3112 219.879 66.3043 219.887 66.2996 219.893C66.2973 219.896 66.2956 219.898 66.2945 219.9C66.2939 219.9 66.2935 219.901 66.2932 219.901C66.2931 219.901 66.293 219.901 66.2929 219.902C66.2929 219.902 66.2929 219.902 66.6824 220.215C67.072 220.529 67.072 220.528 67.0721 220.528C67.0722 220.528 67.0724 220.528 67.0725 220.528C67.0729 220.527 67.0734 220.527 67.074 220.526C67.0753 220.524 67.0772 220.522 67.0796 220.519C67.0846 220.513 67.0919 220.504 67.1015 220.492C67.1206 220.468 67.149 220.432 67.1858 220.386C67.2596 220.293 67.3677 220.156 67.5054 219.98C67.7808 219.629 68.1749 219.12 68.6509 218.491C69.6025 217.233 70.8825 215.491 72.1948 213.557C73.5064 211.624 74.8548 209.494 75.9407 207.459C77.0207 205.434 77.8642 203.463 78.1306 201.859L77.6374 201.777ZM167.665 172.502C167.165 172.502 167.165 172.502 167.165 172.502C167.165 172.502 167.165 172.502 167.165 172.503C167.165 172.503 167.165 172.504 167.165 172.506C167.165 172.509 167.165 172.513 167.165 172.519C167.165 172.53 167.165 172.547 167.166 172.569C167.166 172.613 167.166 172.678 167.166 172.764C167.166 172.936 167.166 173.188 167.167 173.512C167.169 174.158 167.173 175.089 167.181 176.224C167.197 178.495 167.229 181.587 167.292 184.869C167.419 191.412 167.672 198.774 168.187 201.859L168.681 201.777L169.174 201.695C168.674 198.699 168.419 191.423 168.292 184.849C168.229 181.573 168.197 178.485 168.181 176.217C168.173 175.083 168.169 174.154 168.167 173.509C168.166 173.186 168.166 172.934 168.166 172.763C168.166 172.677 168.166 172.612 168.166 172.568C168.165 172.546 168.165 172.529 168.165 172.518C168.165 172.513 168.165 172.508 168.165 172.506C168.165 172.504 168.165 172.503 168.165 172.503C168.165 172.502 168.165 172.502 168.165 172.502C168.165 172.502 168.165 172.502 167.665 172.502ZM168.681 201.777L168.187 201.859C168.455 203.463 169.298 205.434 170.377 207.458C171.462 209.493 172.808 211.624 174.117 213.557C175.428 215.49 176.705 217.232 177.655 218.49C178.13 219.12 178.524 219.628 178.798 219.98C178.936 220.156 179.044 220.293 179.117 220.385C179.154 220.432 179.182 220.467 179.202 220.491C179.211 220.503 179.218 220.512 179.223 220.519C179.226 220.522 179.228 220.524 179.229 220.526C179.23 220.526 179.23 220.527 179.23 220.527C179.231 220.528 179.231 220.528 179.231 220.528C179.231 220.528 179.231 220.528 179.621 220.215C180.011 219.902 180.011 219.902 180.011 219.902C180.011 219.902 180.01 219.902 180.01 219.902C180.01 219.901 180.01 219.901 180.009 219.9C180.008 219.899 180.006 219.896 180.004 219.894C179.999 219.888 179.992 219.879 179.983 219.868C179.965 219.844 179.937 219.81 179.901 219.764C179.829 219.673 179.722 219.538 179.586 219.364C179.314 219.016 178.925 218.512 178.453 217.888C177.51 216.639 176.243 214.912 174.945 212.996C173.647 211.079 172.321 208.98 171.259 206.988C170.192 204.985 169.414 203.132 169.174 201.695L168.681 201.777ZM68.6882 113.053L69.0833 112.747C67.9946 111.343 66.3943 109.926 64.1903 109.559L64.1081 110.052L64.0259 110.546C65.8821 110.855 67.2829 112.057 68.293 113.36L68.6882 113.053ZM64.1081 110.052L64.1893 109.559C63.1068 109.381 62.039 109.658 61.1191 110.396C60.2085 111.127 59.4631 112.292 58.9547 113.868C57.9393 117.014 57.8293 121.916 59.3588 128.747L59.8467 128.638L60.3346 128.528C58.8238 121.781 58.9687 117.081 59.9063 114.175C60.3743 112.724 61.0299 111.75 61.7451 111.176C62.4508 110.609 63.2337 110.415 64.0268 110.546L64.1081 110.052ZM59.8467 128.638L59.3586 128.746C60.0946 132.058 60.6338 135.046 61.1985 137.741C61.7588 140.415 62.34 142.776 63.15 144.739C63.962 146.706 65.0174 148.305 66.5461 149.423C68.0781 150.543 70.0355 151.144 72.5846 151.204L72.5965 150.704L72.6083 150.205C70.2071 150.147 68.4634 149.586 67.1364 148.615C65.806 147.643 64.8444 146.222 64.0743 144.357C63.3023 142.487 62.7363 140.203 62.1772 137.536C61.6224 134.888 61.0699 131.837 60.3348 128.529L59.8467 128.638ZM72.5965 150.704L73.0914 150.633C71.3089 138.259 70.0204 122.823 69.1864 113.011L68.6882 113.053L68.19 113.096C69.0232 122.899 70.3141 138.367 72.1016 150.776L72.5965 150.704ZM182.205 110.042L182.123 109.549C179.924 109.917 178.319 111.333 177.23 112.737L177.625 113.044L178.02 113.35C179.03 112.048 180.436 110.845 182.288 110.536L182.205 110.042ZM177.625 113.044L177.127 113.001C176.293 122.813 175.009 138.258 173.207 150.637L173.702 150.709L174.197 150.781C176.004 138.367 177.29 122.889 178.123 113.086L177.625 113.044ZM173.702 150.709L173.715 151.209C176.267 151.145 178.227 150.54 179.759 149.417C181.288 148.296 182.343 146.694 183.154 144.727C183.963 142.764 184.543 140.402 185.102 137.731C185.665 135.04 186.204 132.055 186.94 128.751L186.452 128.642L185.964 128.534C185.228 131.835 184.677 134.88 184.123 137.526C183.565 140.191 183.001 142.474 182.23 144.346C181.46 146.212 180.499 147.635 179.168 148.61C177.84 149.584 176.094 150.149 173.689 150.209L173.702 150.709ZM186.452 128.642L186.94 128.752C188.476 121.914 188.37 117.009 187.357 113.86C186.849 112.283 186.104 111.118 185.194 110.387C184.274 109.648 183.206 109.371 182.124 109.549L182.205 110.042L182.286 110.536C183.08 110.405 183.862 110.6 184.568 111.166C185.283 111.741 185.938 112.715 186.405 114.166C187.341 117.074 187.482 121.778 185.964 128.533L186.452 128.642ZM123.159 177.405H122.659V220.22H123.159H123.659V177.405H123.159ZM123.159 111.205H122.659V152.641H123.159H123.659V111.205H123.159ZM123.159 34.1961H122.659V55.6059H123.159H123.659V34.1961H123.159ZM101.274 170.069V170.569H145.04V170.069V169.569H101.274V170.069ZM111.405 117.467L111.227 116.999L103.126 120.084L103.304 120.551L103.482 121.019L111.583 117.934L111.405 117.467ZM103.304 120.551V120.051H95.0948V120.551V121.051H103.304V120.551ZM95.0948 120.551L95.3215 120.106L87.5049 116.129L87.2782 116.574L87.0515 117.02L94.868 120.997L95.0948 120.551ZM87.2782 116.574L87.5313 117.005L95.1321 112.543L94.879 112.112L94.6259 111.681L87.025 116.143L87.2782 116.574ZM94.879 112.112V112.612H103.387V112.112V111.612H94.879V112.112ZM103.387 112.112L103.115 112.532L103.365 112.693L103.637 112.274L103.909 111.854L103.659 111.692L103.387 112.112ZM103.637 112.274L103.359 112.689L111.127 117.882L111.405 117.467L111.683 117.051L103.915 111.858L103.637 112.274ZM111.405 117.486L110.951 117.697L115.713 127.931L116.166 127.721L116.62 127.51L111.858 117.275L111.405 117.486ZM116.166 127.721L115.933 127.278L72.3826 150.267L72.616 150.709L72.8494 151.152L116.4 128.163L116.166 127.721ZM72.616 150.709L73.0168 151.008L95.4956 120.87L95.0948 120.571L94.694 120.272L72.2152 150.41L72.616 150.709ZM89.2153 98.5383L88.7539 98.7311L94.4276 112.31L94.8889 112.117L95.3503 111.924L89.6766 98.3455L89.2153 98.5383ZM87.2931 116.574L87.3863 116.083L68.7814 112.552L68.6882 113.044L68.595 113.535L87.1998 117.066L87.2931 116.574ZM68.6882 113.044L68.9768 113.452L89.5038 98.9466L89.2153 98.5383L88.9267 98.13L68.3997 112.635L68.6882 113.044ZM89.2153 98.5383L89.1631 99.0356L110.441 101.267L110.493 100.77L110.545 100.272L89.2674 98.041L89.2153 98.5383ZM110.493 100.77L110.099 101.078L116.278 108.977L116.671 108.669L117.065 108.361L110.887 100.461L110.493 100.77ZM116.671 108.669L116.172 108.656L115.666 127.707L116.166 127.721L116.666 127.734L117.171 108.683L116.671 108.669ZM116.166 127.721L115.711 127.514L107.708 145.143L108.163 145.35L108.619 145.556L116.622 127.927L116.166 127.721ZM108.163 145.35H107.663V149.807H108.163H108.663V145.35H108.163ZM108.163 149.807L107.938 150.253L116.853 154.76L117.078 154.314L117.304 153.867L108.389 149.361L108.163 149.807ZM117.078 154.314H116.578V164.798H117.078H117.578V154.314H117.078ZM117.486 148.895V148.395H112.013V148.895V149.395H117.486V148.895ZM112.013 148.895L112.301 149.304L115.037 147.377L114.749 146.968L114.461 146.559L111.725 148.486L112.013 148.895ZM114.749 146.968L114.47 147.382L122.88 153.056L123.159 152.641L123.439 152.227L115.029 146.553L114.749 146.968ZM123.159 166.318L123.28 165.833L117.2 164.313L117.078 164.798L116.957 165.283L123.038 166.803L123.159 166.318ZM117.078 164.798L116.923 164.323L100.814 169.589L100.97 170.064L101.125 170.54L117.234 165.273L117.078 164.798ZM100.97 170.064L100.771 170.523L116.463 177.31L116.662 176.851L116.86 176.392L101.168 169.606L100.97 170.064ZM116.662 176.851C116.61 177.349 116.61 177.349 116.61 177.349C116.61 177.349 116.611 177.349 116.611 177.349C116.611 177.349 116.611 177.349 116.612 177.349C116.612 177.349 116.614 177.349 116.615 177.349C116.619 177.349 116.624 177.35 116.63 177.351C116.643 177.352 116.662 177.354 116.688 177.357C116.738 177.362 116.812 177.369 116.905 177.379C117.093 177.399 117.36 177.426 117.68 177.46C118.32 177.526 119.168 177.615 120.003 177.704C120.839 177.793 121.661 177.882 122.249 177.948C122.544 177.981 122.776 178.009 122.922 178.028C122.998 178.037 123.039 178.044 123.052 178.046C123.056 178.047 123.049 178.045 123.036 178.042C123.031 178.041 123.014 178.037 122.992 178.029C122.981 178.025 122.96 178.017 122.935 178.004C122.918 177.995 122.858 177.963 122.799 177.9C122.738 177.833 122.604 177.64 122.697 177.388C122.768 177.196 122.924 177.123 122.95 177.11C122.999 177.087 123.041 177.077 123.056 177.073C123.076 177.069 123.093 177.067 123.102 177.065C123.12 177.063 123.134 177.063 123.138 177.062C123.144 177.062 123.148 177.062 123.149 177.062V177.562V178.062C123.158 178.062 123.188 178.062 123.224 178.058C123.226 178.058 123.3 178.051 123.381 178.012C123.408 177.999 123.565 177.926 123.635 177.734C123.728 177.481 123.595 177.288 123.533 177.221C123.474 177.157 123.413 177.125 123.395 177.116C123.369 177.102 123.348 177.094 123.336 177.09C123.311 177.081 123.291 177.075 123.282 177.073C123.262 177.068 123.244 177.064 123.233 177.062C123.19 177.055 123.124 177.045 123.05 177.036C122.896 177.016 122.656 176.988 122.361 176.954C121.77 176.887 120.945 176.798 120.109 176.71C119.273 176.621 118.424 176.532 117.784 176.465C117.464 176.432 117.196 176.404 117.008 176.384C116.915 176.375 116.841 176.367 116.79 176.362C116.765 176.359 116.746 176.357 116.733 176.356C116.726 176.355 116.721 176.355 116.718 176.354C116.716 176.354 116.715 176.354 116.714 176.354C116.714 176.354 116.714 176.354 116.713 176.354C116.713 176.354 116.713 176.354 116.713 176.354C116.713 176.354 116.713 176.354 116.662 176.851ZM108.163 145.345C107.792 145.01 107.792 145.01 107.792 145.01C107.792 145.01 107.792 145.01 107.792 145.01C107.791 145.011 107.791 145.011 107.79 145.012C107.789 145.013 107.787 145.015 107.785 145.018C107.78 145.023 107.773 145.031 107.763 145.042C107.744 145.063 107.715 145.095 107.678 145.136C107.604 145.218 107.495 145.339 107.356 145.493C107.079 145.8 106.682 146.239 106.205 146.766C105.251 147.82 103.976 149.225 102.691 150.629C101.406 152.034 100.113 153.438 99.123 154.489C98.6275 155.015 98.2107 155.451 97.9096 155.753C97.7583 155.905 97.6411 156.018 97.5598 156.092C97.5182 156.13 97.4937 156.15 97.483 156.158C97.4768 156.163 97.4845 156.156 97.5018 156.146C97.5106 156.141 97.5305 156.131 97.5588 156.12C97.5813 156.111 97.6436 156.089 97.7282 156.089V156.589V157.089C97.8177 157.089 97.8859 157.065 97.9156 157.054C97.951 157.04 97.9792 157.025 97.9974 157.015C98.0337 156.994 98.065 156.972 98.0868 156.955C98.1323 156.921 98.182 156.878 98.2312 156.833C98.3318 156.742 98.4635 156.614 98.6183 156.459C98.9294 156.146 99.354 155.703 99.851 155.175C100.846 154.118 102.143 152.71 103.429 151.304C104.715 149.898 105.991 148.492 106.946 147.437C107.424 146.91 107.821 146.47 108.099 146.163C108.237 146.009 108.347 145.888 108.421 145.806C108.458 145.765 108.487 145.733 108.506 145.712C108.515 145.701 108.523 145.693 108.528 145.687C108.53 145.685 108.532 145.683 108.533 145.681C108.534 145.681 108.534 145.68 108.534 145.68C108.535 145.68 108.535 145.679 108.535 145.679C108.535 145.679 108.535 145.679 108.163 145.345ZM97.7282 156.589V156.089C97.5927 156.089 97.4951 156.142 97.4485 156.173C97.3989 156.206 97.3653 156.241 97.3474 156.261C97.3116 156.301 97.2881 156.339 97.277 156.358C97.2524 156.399 97.2317 156.444 97.2163 156.48C97.1833 156.555 97.1446 156.657 97.1019 156.775C97.0155 157.015 96.8999 157.362 96.7604 157.796C96.4808 158.666 96.0989 159.906 95.6502 161.391C94.7527 164.361 93.5847 168.32 92.4268 172.278C91.2687 176.236 90.1201 180.194 89.2611 183.162C88.8316 184.646 88.4745 185.883 88.2247 186.749C88.0998 187.181 88.0018 187.522 87.935 187.754C87.9016 187.87 87.876 187.958 87.8587 188.018C87.8501 188.048 87.8435 188.071 87.8392 188.086C87.837 188.094 87.8353 188.1 87.8342 188.103C87.8337 188.105 87.8332 188.107 87.833 188.108C87.8328 188.108 87.8327 188.109 87.8327 188.109C87.8326 188.109 87.8326 188.109 88.313 188.248C88.7935 188.386 88.7936 188.386 88.7936 188.385C88.7937 188.385 88.7938 188.385 88.794 188.384C88.7942 188.383 88.7946 188.382 88.7952 188.38C88.7963 188.376 88.798 188.37 88.8001 188.363C88.8045 188.348 88.8111 188.325 88.8197 188.295C88.8369 188.235 88.8625 188.146 88.8959 188.03C88.9627 187.799 89.0607 187.459 89.1855 187.026C89.4352 186.16 89.7923 184.924 90.2217 183.44C91.0806 180.472 92.2288 176.515 93.3865 172.559C94.5443 168.602 95.7112 164.646 96.6075 161.68C97.0558 160.197 97.4356 158.964 97.7124 158.102C97.8511 157.671 97.9625 157.337 98.0429 157.114C98.0836 157 98.1134 156.924 98.1327 156.88C98.1434 156.855 98.1449 156.855 98.1382 156.866C98.1361 156.87 98.1205 156.896 98.0916 156.929C98.0772 156.945 98.0467 156.977 98.0001 157.007C97.9564 157.036 97.8614 157.089 97.7282 157.089V156.589ZM88.313 188.248L88.4995 188.711L116.858 177.315L116.671 176.851L116.485 176.387L88.1266 187.784L88.313 188.248ZM117.078 154.314L116.957 154.799L123.038 156.319L123.159 155.834L123.28 155.349L117.2 153.829L117.078 154.314ZM123.174 111.2L123.355 110.734L116.853 108.203L116.671 108.669L116.49 109.135L122.992 111.666L123.174 111.2ZM116.671 108.669L117.125 108.881L123.612 94.9489L123.159 94.7379L122.706 94.5268L116.218 108.458L116.671 108.669ZM123.159 94.7379L123.608 94.5171L112.461 71.8715L112.013 72.0924L111.564 72.3132L122.71 94.9587L123.159 94.7379ZM112.013 72.0924L112.393 71.7681L87.6588 42.733L87.2782 43.0572L86.8976 43.3815L111.632 72.4166L112.013 72.0924ZM87.2782 43.0572L86.8143 43.2437L110.014 100.951L110.478 100.765L110.942 100.578L87.7421 42.8707L87.2782 43.0572ZM110.478 100.765L110.977 100.791L112.497 72.1188L111.998 72.0924L111.499 72.0659L109.979 100.738L110.478 100.765ZM111.998 72.0924C112.41 72.375 112.41 72.375 112.411 72.3749C112.411 72.3747 112.411 72.3745 112.411 72.3743C112.411 72.3738 112.412 72.3731 112.412 72.3721C112.414 72.3701 112.416 72.3672 112.418 72.3633C112.424 72.3554 112.432 72.3438 112.442 72.3284C112.463 72.2976 112.495 72.252 112.536 72.1924C112.617 72.0733 112.737 71.8987 112.889 71.6764C113.194 71.2317 113.63 70.5965 114.152 69.8343C115.197 68.3099 116.591 66.2773 117.985 64.2447C119.379 62.2122 120.774 60.1797 121.821 58.6553C122.344 57.8931 122.781 57.2582 123.087 56.8138C123.24 56.5916 123.36 56.4173 123.442 56.2987C123.483 56.2393 123.515 56.1945 123.535 56.1647C123.546 56.1497 123.553 56.1396 123.557 56.1338C123.559 56.1305 123.559 56.1307 123.558 56.1326C123.558 56.1329 123.554 56.138 123.549 56.1448C123.545 56.149 123.534 56.1615 123.527 56.1695C123.508 56.1895 123.334 56.2997 123.159 56.3315V55.8315V55.3315C122.984 55.3633 122.81 55.4736 122.79 55.4938C122.783 55.5021 122.772 55.515 122.768 55.5197C122.762 55.5275 122.757 55.5341 122.755 55.5363C122.751 55.5422 122.746 55.5482 122.743 55.5528C122.736 55.5626 122.727 55.5759 122.716 55.5916C122.694 55.6234 122.661 55.6698 122.62 55.7295C122.537 55.8492 122.416 56.0242 122.263 56.2466C121.957 56.6915 121.52 57.3269 120.997 58.0892C119.95 59.6138 118.555 61.6465 117.161 63.6791C115.766 65.7118 114.373 67.7444 113.327 69.2689C112.805 70.0311 112.369 70.6663 112.065 71.1109C111.912 71.3332 111.792 71.5079 111.711 71.627C111.67 71.6866 111.639 71.7322 111.618 71.763C111.607 71.7784 111.599 71.7901 111.594 71.7979C111.591 71.8018 111.589 71.8047 111.588 71.8067C111.587 71.8077 111.586 71.8084 111.586 71.8089C111.586 71.8092 111.586 71.8093 111.586 71.8095C111.586 71.8096 111.586 71.8097 111.998 72.0924ZM123.159 55.8315V56.3315C123.648 55.9363 123.354 55.3709 123.343 55.3666C123.34 55.3653 123.335 55.3635 123.333 55.3627C123.33 55.3615 123.326 55.3603 123.324 55.3594C123.319 55.3575 123.312 55.3549 123.303 55.3518C123.285 55.3455 123.259 55.3362 123.226 55.3241C123.158 55.2999 123.057 55.264 122.926 55.2173C122.664 55.1239 122.279 54.9869 121.789 54.8126C120.809 54.4639 119.408 53.9659 117.726 53.3682C114.363 52.1729 109.877 50.5792 105.391 48.9855C100.905 47.3918 96.419 45.798 93.054 44.6027C91.3715 44.0051 89.9694 43.5071 88.9879 43.1584C88.4972 42.9841 88.1116 42.8472 87.8487 42.7538C87.7172 42.7071 87.6164 42.6713 87.5485 42.6472C87.5146 42.6351 87.4888 42.626 87.4716 42.6198C87.4629 42.6168 87.4564 42.6145 87.4521 42.6129C87.4499 42.6121 87.4483 42.6116 87.4472 42.6112C87.4466 42.611 87.4462 42.6108 87.4459 42.6107C87.4457 42.6106 87.4455 42.6106 87.2782 43.0817C87.1108 43.5529 87.111 43.553 87.1112 43.5531C87.1115 43.5532 87.1119 43.5533 87.1125 43.5535C87.1136 43.5539 87.1152 43.5545 87.1174 43.5552C87.1217 43.5568 87.1282 43.5591 87.1368 43.5622C87.1541 43.5683 87.1798 43.5774 87.2138 43.5895C87.2817 43.6136 87.3825 43.6494 87.514 43.6961C87.7769 43.7895 88.1624 43.9264 88.6532 44.1007C89.6347 44.4494 91.0368 44.9474 92.7193 45.5451C96.0842 46.7403 100.571 48.3341 105.057 49.9278C109.543 51.5215 114.028 53.1152 117.391 54.3105C119.073 54.9081 120.474 55.4061 121.454 55.7547C121.944 55.9291 122.329 56.066 122.591 56.1593C122.722 56.206 122.822 56.2417 122.889 56.2658C122.923 56.2778 122.948 56.2868 122.964 56.2927C122.973 56.2957 122.978 56.2978 122.981 56.2989C122.983 56.2996 122.983 56.2995 122.982 56.2991C122.981 56.2988 122.977 56.2972 122.974 56.2961C122.964 56.292 122.67 55.7267 123.159 55.3315V55.8315ZM87.2782 43.0817L86.7955 42.9514L78.7043 72.9133L79.187 73.0437L79.6697 73.174L87.7609 43.2121L87.2782 43.0817ZM89.2153 98.5383L89.6799 98.723L99.8111 73.2333L99.3465 73.0486L98.8819 72.8639L88.7506 98.3536L89.2153 98.5383ZM99.3465 73.0486V72.5486H66.8689V73.0486V73.5486H99.3465V73.0486ZM66.8689 73.0486L66.493 73.3782L88.8393 98.8679L89.2153 98.5383L89.5912 98.2087L67.2449 72.719L66.8689 73.0486ZM123.159 34L122.833 33.6212L104.905 49.0631L105.231 49.4419L105.557 49.8208L123.485 34.3788L123.159 34ZM104.108 114.304L103.608 114.304C103.608 114.937 103.463 115.562 103.185 116.132L103.634 116.351L104.083 116.571C104.428 115.865 104.607 115.09 104.608 114.304L104.108 114.304ZM103.634 116.351L103.185 116.132C102.907 116.701 102.503 117.2 102.003 117.59L102.311 117.984L102.619 118.378C103.238 117.894 103.739 117.276 104.083 116.571L103.634 116.351ZM102.311 117.984L102.003 117.59C101.504 117.98 100.922 118.251 100.303 118.383L100.407 118.872L100.511 119.361C101.279 119.198 102 118.861 102.619 118.378L102.311 117.984ZM100.407 118.872L100.303 118.383C99.6828 118.515 99.0411 118.503 98.4263 118.35L98.3054 118.836L98.1846 119.321C98.9468 119.511 99.7422 119.524 100.511 119.361L100.407 118.872ZM98.3054 118.836L98.4263 118.35C97.8114 118.197 97.2395 117.906 96.7538 117.499L96.4326 117.882L96.1115 118.265C96.7134 118.77 97.4224 119.131 98.1846 119.321L98.3054 118.836ZM96.4326 117.882L96.7538 117.499C96.2682 117.092 95.8817 116.58 95.6235 116.001L95.1669 116.205L94.7103 116.409C95.0303 117.126 95.5095 117.761 96.1115 118.265L96.4326 117.882ZM95.1669 116.205L95.6235 116.001C95.3653 115.422 95.2423 114.793 95.2638 114.159L94.7641 114.142L94.2644 114.125C94.2378 114.91 94.3903 115.691 94.7103 116.409L95.1669 116.205ZM94.7641 114.142L95.2638 114.159C95.2853 113.526 95.4507 112.906 95.7475 112.346L95.3057 112.112L94.864 111.878C94.4961 112.572 94.291 113.34 94.2644 114.125L94.7641 114.142ZM95.3057 112.112V112.612H103.397V112.112V111.612H95.3057V112.112ZM103.397 112.112L103.125 112.532L103.375 112.693L103.647 112.274L103.919 111.854L103.669 111.692L103.397 112.112ZM103.647 112.274L103.197 112.492C103.471 113.056 103.611 113.675 103.608 114.301L104.108 114.304L104.608 114.306C104.612 113.527 104.437 112.757 104.097 112.055L103.647 112.274ZM99.4346 220.215L99.746 219.824L77.7379 202.308L77.4266 202.699L77.1152 203.09L99.1232 220.606L99.4346 220.215ZM77.4266 202.699L77.2551 202.229C77.2643 202.226 77.4821 202.138 77.6977 202.295C77.9276 202.462 77.8979 202.713 77.8959 202.731C77.8872 202.814 77.8568 202.857 77.8841 202.803C77.9173 202.738 77.9924 202.614 78.1177 202.425C78.3625 202.057 78.7529 201.512 79.2468 200.841C80.2325 199.502 81.6116 197.691 83.014 195.87C84.4159 194.05 85.8389 192.221 86.9116 190.848C87.4479 190.161 87.8966 189.588 88.2112 189.187C88.3685 188.986 88.4922 188.829 88.5766 188.721C88.6188 188.668 88.6512 188.626 88.673 188.599C88.6839 188.585 88.6922 188.574 88.6977 188.567C88.7005 188.564 88.7026 188.561 88.704 188.559C88.7047 188.558 88.7052 188.558 88.7055 188.557C88.7057 188.557 88.7059 188.557 88.7059 188.557C88.706 188.557 88.7061 188.557 88.313 188.248C87.92 187.938 87.92 187.938 87.9199 187.939C87.9198 187.939 87.9197 187.939 87.9195 187.939C87.9191 187.94 87.9186 187.94 87.9179 187.941C87.9165 187.943 87.9144 187.946 87.9116 187.949C87.906 187.956 87.8977 187.967 87.8868 187.981C87.8649 188.009 87.8325 188.05 87.7902 188.104C87.7056 188.211 87.5817 188.369 87.4243 188.57C87.1094 188.972 86.6603 189.545 86.1235 190.232C85.05 191.607 83.6255 193.437 82.2217 195.26C80.8185 197.082 79.434 198.9 78.4415 200.248C77.9463 200.92 77.5439 201.482 77.2852 201.871C77.1587 202.061 77.0544 202.228 76.9922 202.351C76.9717 202.391 76.9145 202.502 76.9014 202.627C76.8973 202.666 76.8711 202.931 77.1102 203.104C77.335 203.267 77.5678 203.18 77.598 203.169L77.4266 202.699ZM88.313 188.248L87.8408 188.412L98.9624 220.379L99.4346 220.215L99.9068 220.051L88.7853 188.083L88.313 188.248ZM99.4346 220.215L99.6502 220.666L123.389 209.319L123.174 208.868L122.958 208.417L99.219 219.764L99.4346 220.215ZM123.174 208.868L123.582 208.579L104.516 181.609L104.108 181.897L103.7 182.186L122.765 209.156L123.174 208.868ZM77.4266 202.699L76.9351 202.791L80.2158 220.312L80.7072 220.22L81.1987 220.128L77.918 202.607L77.4266 202.699ZM88.313 188.248L88.463 187.771L78.6653 184.691L78.5154 185.168L78.3654 185.645L88.1631 188.725L88.313 188.248ZM59.2238 114.75L59.3032 115.244L62.4465 114.739L62.3671 114.245L62.2878 113.751L59.1445 114.256L59.2238 114.75ZM62.3671 114.245L61.9375 114.501L69.4745 127.167L69.9042 126.911L70.3339 126.656L62.7968 113.989L62.3671 114.245ZM69.9042 126.911L69.5029 126.613L65.065 132.586L65.4663 132.884L65.8677 133.182L70.3056 127.21L69.9042 126.911ZM65.4663 132.884L65.0822 133.204L70.8392 140.114L71.2233 139.794L71.6074 139.473L65.8504 132.564L65.4663 132.884ZM62.3671 114.245L61.8692 114.199L60.1872 132.569L60.6851 132.614L61.1831 132.66L62.8651 114.291L62.3671 114.245ZM65.4663 132.884L65.1128 132.531L61.1897 136.454L61.5433 136.807L61.8969 137.161L65.8199 133.238L65.4663 132.884ZM61.5433 136.807C61.1592 137.127 61.1592 137.127 61.1593 137.127C61.1594 137.128 61.1595 137.128 61.1597 137.128C61.1601 137.128 61.1606 137.129 61.1613 137.13C61.1627 137.131 61.1648 137.134 61.1675 137.137C61.1731 137.144 61.1814 137.154 61.1923 137.167C61.2142 137.193 61.2467 137.232 61.2891 137.283C61.3738 137.385 61.4981 137.534 61.656 137.725C61.972 138.105 62.4228 138.648 62.9622 139.3C64.0411 140.604 65.474 142.342 66.8908 144.079C68.3081 145.817 69.7071 147.551 70.7192 148.849C71.2261 149.499 71.6314 150.033 71.8927 150.402C72.0255 150.589 72.1113 150.72 72.1548 150.797C72.1817 150.845 72.1719 150.837 72.1612 150.797C72.1604 150.794 72.1238 150.679 72.1718 150.536C72.2022 150.446 72.2671 150.344 72.3802 150.275C72.4859 150.211 72.5884 150.202 72.6499 150.205L72.6307 150.704L72.6115 151.204C72.6809 151.207 72.79 151.197 72.9007 151.129C73.0188 151.057 73.0873 150.951 73.1198 150.854C73.1721 150.699 73.1341 150.564 73.1263 150.535C73.1016 150.444 73.0557 150.359 73.0256 150.306C72.9553 150.181 72.8442 150.015 72.7087 149.824C72.4334 149.435 72.0163 148.886 71.5077 148.234C70.4887 146.927 69.084 145.186 67.6657 143.447C66.2469 141.707 64.8124 139.968 63.7326 138.663C63.1928 138.01 62.7415 137.466 62.4252 137.086C62.2671 136.895 62.1426 136.746 62.0578 136.644C62.0153 136.593 61.9827 136.554 61.9608 136.527C61.9498 136.514 61.9415 136.504 61.9359 136.497C61.9331 136.494 61.931 136.491 61.9295 136.49C61.9288 136.489 61.9283 136.488 61.928 136.488C61.9278 136.488 61.9276 136.487 61.9275 136.487C61.9275 136.487 61.9274 136.487 61.5433 136.807ZM72.6307 150.704L72.5166 151.191L97.6287 157.076L97.7428 156.589L97.8569 156.102L72.7448 150.218L72.6307 150.704ZM97.7428 156.589L97.2567 156.706L100.498 170.181L100.984 170.064L101.47 169.947L98.2289 156.472L97.7428 156.589ZM100.984 170.064L101.455 170.232L108.649 149.969L108.178 149.802L107.707 149.635L100.513 169.897L100.984 170.064ZM134.943 117.467L134.765 117.934L142.871 121.019L143.049 120.551L143.226 120.084L135.121 116.999L134.943 117.467ZM143.049 120.551V121.051H151.253V120.551V120.051H143.049V120.551ZM151.253 120.551L151.48 120.996L159.287 117L159.059 116.555L158.832 116.11L151.025 120.106L151.253 120.551ZM159.059 116.555L159.313 116.124L151.712 111.661L151.459 112.092L151.205 112.523L158.806 116.986L159.059 116.555ZM151.459 112.092V111.592H142.951V112.092V112.592H151.459V112.092ZM142.951 112.092L142.679 111.672L142.429 111.834L142.7 112.254L142.972 112.674L143.222 112.512L142.951 112.092ZM142.7 112.254L142.422 111.839L134.664 117.052L134.943 117.467L135.222 117.882L142.979 112.669L142.7 112.254ZM134.943 117.486L134.489 117.275L129.728 127.51L130.181 127.721L130.635 127.931L135.396 117.697L134.943 117.486ZM130.181 127.721L129.948 128.163L173.503 151.152L173.736 150.709L173.97 150.267L130.415 127.278L130.181 127.721ZM173.736 150.709L174.137 150.41L151.658 120.272L151.258 120.571L150.857 120.87L173.336 151.008L173.736 150.709ZM157.132 98.5383L156.671 98.3455L150.997 111.924L151.459 112.117L151.92 112.31L157.594 98.7311L157.132 98.5383ZM159.059 116.574L159.153 117.066L177.753 113.535L177.659 113.044L177.566 112.552L158.966 116.083L159.059 116.574ZM177.659 113.044L177.948 112.635L157.421 98.13L157.132 98.5383L156.844 98.9466L177.371 113.452L177.659 113.044ZM157.132 98.5383L157.08 98.041L135.803 100.272L135.855 100.77L135.907 101.267L157.184 99.0356L157.132 98.5383ZM135.855 100.77L135.461 100.461L129.282 108.361L129.676 108.669L130.07 108.977L136.249 101.078L135.855 100.77ZM129.676 108.669L129.176 108.683L129.681 127.734L130.181 127.721L130.681 127.707L130.176 108.656L129.676 108.669ZM130.181 127.721L129.726 127.927L137.729 145.556L138.184 145.35L138.64 145.143L130.637 127.514L130.181 127.721ZM138.184 145.35H137.684V149.807H138.184H138.684V145.35H138.184ZM138.184 149.807L137.959 149.361L129.044 153.867L129.269 154.314L129.495 154.76L138.41 150.253L138.184 149.807ZM129.269 154.314H128.769V164.798H129.269H129.769V154.314H129.269ZM128.867 148.895V149.395H134.335V148.895V148.395H128.867V148.895ZM134.335 148.895L134.623 148.486L131.886 146.559L131.598 146.968L131.311 147.377L134.047 149.304L134.335 148.895ZM131.598 146.968L131.319 146.553L122.914 152.227L123.193 152.641L123.473 153.056L131.878 147.382L131.598 146.968ZM123.193 166.318L123.315 166.803L129.391 165.283L129.269 164.798L129.148 164.313L123.072 165.833L123.193 166.318ZM129.269 164.798L129.114 165.273L145.223 170.54L145.378 170.064L145.533 169.589L129.425 164.323L129.269 164.798ZM145.378 170.064L145.18 169.606L129.488 176.392L129.686 176.851L129.885 177.31L145.577 170.523L145.378 170.064ZM129.686 176.851C129.635 176.354 129.635 176.354 129.634 176.354C129.634 176.354 129.634 176.354 129.634 176.354C129.634 176.354 129.634 176.354 129.633 176.354C129.632 176.354 129.631 176.354 129.63 176.354C129.626 176.355 129.621 176.355 129.615 176.356C129.602 176.357 129.583 176.359 129.557 176.362C129.507 176.367 129.434 176.375 129.34 176.384C129.153 176.404 128.886 176.432 128.567 176.465C127.93 176.532 127.083 176.621 126.248 176.71C125.414 176.798 124.59 176.887 123.999 176.954C123.704 176.988 123.463 177.016 123.308 177.036C123.234 177.045 123.168 177.054 123.125 177.062C123.115 177.064 123.098 177.067 123.08 177.071C123.071 177.073 123.054 177.078 123.035 177.084C123.034 177.084 122.96 177.106 122.886 177.162C122.863 177.179 122.709 177.294 122.69 177.517C122.665 177.794 122.858 177.943 122.917 177.981C122.984 178.025 123.045 178.041 123.063 178.045C123.089 178.052 123.111 178.055 123.123 178.057C123.162 178.063 123.197 178.062 123.203 178.062V177.562V177.062C123.205 177.062 123.209 177.062 123.216 177.063C123.221 177.063 123.237 177.063 123.259 177.066C123.269 177.068 123.29 177.071 123.315 177.078C123.332 177.082 123.392 177.098 123.459 177.141C123.517 177.178 123.71 177.327 123.686 177.604C123.666 177.827 123.513 177.942 123.491 177.958C123.445 177.993 123.405 178.011 123.391 178.017C123.371 178.026 123.356 178.031 123.347 178.034C123.33 178.04 123.316 178.043 123.312 178.044C123.302 178.046 123.297 178.047 123.301 178.047C123.316 178.044 123.359 178.037 123.436 178.028C123.583 178.009 123.816 177.981 124.111 177.948C124.699 177.882 125.52 177.793 126.354 177.704C127.188 177.615 128.034 177.526 128.671 177.46C128.99 177.426 129.257 177.399 129.444 177.379C129.537 177.369 129.61 177.362 129.661 177.357C129.686 177.354 129.705 177.352 129.718 177.351C129.724 177.35 129.729 177.349 129.733 177.349C129.734 177.349 129.735 177.349 129.736 177.349C129.737 177.349 129.737 177.349 129.737 177.349C129.737 177.349 129.737 177.349 129.737 177.349C129.738 177.349 129.738 177.349 129.686 176.851ZM138.184 145.345C137.813 145.679 137.813 145.679 137.813 145.68C137.813 145.68 137.813 145.68 137.813 145.68C137.814 145.68 137.814 145.681 137.815 145.681C137.816 145.683 137.818 145.685 137.82 145.688C137.825 145.693 137.832 145.701 137.842 145.712C137.861 145.733 137.89 145.765 137.927 145.806C138.001 145.888 138.11 146.009 138.249 146.163C138.527 146.471 138.925 146.91 139.402 147.437C140.358 148.492 141.635 149.898 142.921 151.304C144.208 152.71 145.505 154.118 146.501 155.175C146.998 155.703 147.423 156.146 147.734 156.459C147.889 156.614 148.021 156.742 148.121 156.833C148.171 156.878 148.22 156.921 148.266 156.955C148.288 156.972 148.319 156.994 148.355 157.015C148.373 157.025 148.402 157.04 148.437 157.054C148.467 157.065 148.535 157.089 148.624 157.089V156.589V156.089C148.709 156.089 148.771 156.111 148.794 156.12C148.822 156.131 148.842 156.141 148.851 156.146C148.868 156.156 148.876 156.163 148.87 156.158C148.859 156.15 148.834 156.13 148.793 156.092C148.711 156.018 148.594 155.905 148.443 155.753C148.142 155.45 147.724 155.015 147.229 154.489C146.238 153.438 144.945 152.034 143.659 150.629C142.374 149.225 141.098 147.82 140.143 146.766C139.666 146.239 139.269 145.8 138.991 145.493C138.853 145.339 138.744 145.218 138.669 145.136C138.632 145.095 138.604 145.063 138.585 145.042C138.575 145.031 138.568 145.023 138.563 145.018C138.561 145.015 138.559 145.013 138.557 145.012C138.557 145.011 138.556 145.011 138.556 145.01C138.556 145.01 138.556 145.01 138.556 145.01C138.556 145.01 138.556 145.01 138.184 145.345ZM148.624 156.589V157.089C148.491 157.089 148.396 157.036 148.353 157.007C148.306 156.977 148.275 156.945 148.261 156.929C148.232 156.896 148.216 156.87 148.214 156.866C148.208 156.855 148.209 156.855 148.22 156.88C148.239 156.924 148.269 157 148.31 157.114C148.39 157.337 148.501 157.671 148.64 158.102C148.917 158.964 149.297 160.197 149.745 161.68C150.641 164.646 151.808 168.602 152.966 172.559C154.124 176.515 155.272 180.472 156.131 183.44C156.56 184.924 156.917 186.16 157.167 187.026C157.292 187.459 157.39 187.799 157.457 188.03C157.49 188.146 157.516 188.235 157.533 188.295C157.542 188.325 157.548 188.348 157.552 188.363C157.555 188.37 157.556 188.376 157.557 188.38C157.558 188.382 157.558 188.383 157.559 188.384C157.559 188.385 157.559 188.385 157.559 188.385C157.559 188.386 157.559 188.386 158.04 188.248C158.52 188.109 158.52 188.109 158.52 188.109C158.52 188.109 158.52 188.108 158.52 188.108C158.519 188.107 158.519 188.105 158.518 188.103C158.517 188.1 158.516 188.094 158.513 188.086C158.509 188.071 158.503 188.048 158.494 188.018C158.477 187.958 158.451 187.87 158.418 187.754C158.351 187.522 158.253 187.181 158.128 186.749C157.878 185.883 157.521 184.646 157.091 183.162C156.232 180.194 155.084 176.236 153.926 172.278C152.768 168.32 151.6 164.361 150.702 161.391C150.254 159.906 149.872 158.666 149.592 157.796C149.453 157.362 149.337 157.015 149.251 156.775C149.208 156.657 149.169 156.555 149.136 156.48C149.121 156.444 149.1 156.399 149.076 156.358C149.065 156.339 149.041 156.301 149.005 156.261C148.987 156.241 148.954 156.206 148.904 156.173C148.858 156.142 148.76 156.089 148.624 156.089V156.589ZM158.04 188.248L158.226 187.784L129.863 176.387L129.676 176.851L129.49 177.315L157.853 188.711L158.04 188.248ZM129.269 154.314L129.148 153.829L123.072 155.349L123.193 155.834L123.315 156.319L129.391 154.799L129.269 154.314ZM123.174 111.2L123.355 111.666L129.858 109.135L129.676 108.669L129.495 108.203L122.992 110.734L123.174 111.2ZM129.676 108.669L130.13 108.459L123.647 94.5269L123.193 94.7379L122.74 94.9488L129.223 108.88L129.676 108.669ZM123.193 94.7379L123.642 94.9589L134.803 72.3134L134.354 72.0924L133.906 71.8713L122.745 94.5168L123.193 94.7379ZM134.354 72.0924L134.735 72.4165L159.46 43.3814L159.079 43.0572L158.698 42.7331L133.974 71.7682L134.354 72.0924ZM159.079 43.0572L158.615 42.8706L135.391 100.578L135.855 100.765L136.319 100.951L159.543 43.2439L159.079 43.0572ZM135.855 100.765L136.354 100.738L134.854 72.0662L134.354 72.0924L133.855 72.1185L135.356 100.791L135.855 100.765ZM134.354 72.0924C134.767 71.8094 134.767 71.8093 134.766 71.8092C134.766 71.8091 134.766 71.8089 134.766 71.8087C134.766 71.8082 134.765 71.8074 134.765 71.8064C134.763 71.8045 134.761 71.8015 134.758 71.7976C134.753 71.7898 134.745 71.7781 134.735 71.7627C134.713 71.732 134.682 71.6863 134.641 71.6268C134.559 71.5077 134.44 71.333 134.287 71.1107C133.982 70.666 133.546 70.0308 133.022 69.2686C131.976 67.7441 130.58 65.7115 129.184 63.6788C127.787 61.6462 126.39 59.6134 125.341 58.0888C124.816 57.3265 124.379 56.6911 124.071 56.2461C123.918 56.0237 123.796 55.8484 123.713 55.7287C123.671 55.6689 123.639 55.6222 123.616 55.59C123.605 55.5742 123.595 55.5605 123.588 55.55C123.584 55.5452 123.579 55.5382 123.574 55.5312C123.572 55.5285 123.565 55.5203 123.557 55.5106C123.552 55.5048 123.538 55.489 123.529 55.4791C123.504 55.4561 123.335 55.3581 123.174 55.3315V55.8315V56.3315C123.013 56.305 122.844 56.207 122.819 56.1843C122.81 56.1746 122.796 56.1592 122.792 56.1539C122.784 56.1452 122.779 56.1384 122.779 56.1378C122.776 56.1346 122.776 56.1335 122.778 56.1366C122.782 56.1417 122.788 56.1513 122.799 56.1663C122.82 56.1957 122.851 56.2402 122.892 56.2996C122.974 56.418 123.095 56.5921 123.248 56.8143C123.555 57.2586 123.993 57.8935 124.517 58.6557C125.566 60.18 126.963 62.2125 128.359 64.245C129.756 66.2776 131.151 68.3102 132.198 69.8346C132.721 70.5968 133.157 71.232 133.462 71.6766C133.615 71.8989 133.735 72.0736 133.817 72.1927C133.858 72.2522 133.889 72.2979 133.91 72.3287C133.921 72.344 133.929 72.3557 133.934 72.3635C133.937 72.3674 133.939 72.3704 133.94 72.3723C133.941 72.3733 133.941 72.3741 133.942 72.3746C133.942 72.3748 133.942 72.375 133.942 72.3751C133.942 72.3752 133.942 72.3753 134.354 72.0924ZM123.174 55.8315V55.3315C123.661 55.7181 123.38 56.2871 123.365 56.2935C123.361 56.2952 123.355 56.2975 123.353 56.2981C123.352 56.2988 123.351 56.2991 123.352 56.2984C123.355 56.2974 123.36 56.2955 123.369 56.2925C123.385 56.2866 123.41 56.2777 123.444 56.2657C123.511 56.2417 123.611 56.206 123.741 56.1593C124.003 56.066 124.388 55.929 124.878 55.7547C125.858 55.4061 127.258 54.9081 128.94 54.3105C132.303 53.1152 136.79 51.5215 141.277 49.9278C145.764 48.3341 150.251 46.7404 153.617 45.5451C155.3 44.9474 156.702 44.4494 157.684 44.1008C158.175 43.9265 158.561 43.7895 158.824 43.6961C158.955 43.6494 159.056 43.6136 159.124 43.5895C159.158 43.5774 159.183 43.5683 159.201 43.5622C159.209 43.5591 159.216 43.5568 159.22 43.5552C159.222 43.5545 159.224 43.5539 159.225 43.5535C159.226 43.5533 159.226 43.5532 159.226 43.5531C159.227 43.553 159.227 43.5529 159.059 43.0817C158.892 42.6106 158.892 42.6106 158.892 42.6107C158.891 42.6108 158.891 42.611 158.89 42.6112C158.889 42.6115 158.888 42.6121 158.886 42.6129C158.881 42.6144 158.875 42.6167 158.866 42.6198C158.849 42.6259 158.823 42.6351 158.789 42.6471C158.721 42.6713 158.62 42.7071 158.489 42.7538C158.226 42.8471 157.84 42.9841 157.349 43.1584C156.368 43.507 154.965 44.0051 153.282 44.6027C149.916 45.798 145.429 47.3917 140.942 48.9855C136.455 50.5792 131.969 52.1729 128.605 53.3682C126.923 53.9659 125.522 54.4639 124.542 54.8126C124.053 54.9869 123.668 55.1239 123.406 55.2174C123.275 55.2641 123.174 55.3 123.106 55.3242C123.073 55.3363 123.047 55.3456 123.029 55.352C123.02 55.3551 123.013 55.3579 123.007 55.3599C123.005 55.3608 123.001 55.3623 122.997 55.3638C122.994 55.3647 122.988 55.3674 122.983 55.3692C122.968 55.3758 122.687 55.9449 123.174 56.3315V55.8315ZM159.059 43.0817L158.577 43.2122L166.678 73.1986L167.16 73.0682L167.643 72.9378L159.542 42.9513L159.059 43.0817ZM157.132 98.5383L157.597 98.3536L147.466 72.8639L147.001 73.0486L146.536 73.2333L156.668 98.723L157.132 98.5383ZM147.001 73.0486V73.5486H179.479V73.0486V72.5486H147.001V73.0486ZM179.479 73.0486L179.103 72.719L156.756 98.2087L157.132 98.5383L157.508 98.8679L179.855 73.3782L179.479 73.0486ZM123.193 34L122.867 34.3788L140.79 49.8207L141.117 49.4419L141.443 49.0631L123.52 33.6212L123.193 34ZM142.24 114.304H141.74C141.74 115.676 142.285 116.992 143.255 117.962L143.608 117.608L143.962 117.255C143.179 116.472 142.74 115.411 142.74 114.304H142.24ZM143.608 117.608L143.255 117.962C144.225 118.932 145.541 119.477 146.913 119.477V118.977V118.477C145.806 118.477 144.745 118.037 143.962 117.255L143.608 117.608ZM146.913 118.977V119.477C148.285 119.477 149.601 118.932 150.571 117.962L150.217 117.608L149.864 117.255C149.081 118.037 148.02 118.477 146.913 118.477V118.977ZM150.217 117.608L150.571 117.962C151.541 116.992 152.086 115.676 152.086 114.304H151.586H151.086C151.086 115.411 150.646 116.472 149.864 117.255L150.217 117.608ZM151.586 114.304L152.086 114.306C152.09 113.458 151.882 112.624 151.483 111.876L151.042 112.112L150.601 112.348C150.922 112.949 151.089 113.62 151.086 114.302L151.586 114.304ZM151.042 112.112V111.612H142.951V112.112V112.612H151.042V112.112ZM142.951 112.112L142.679 111.692L142.429 111.854L142.701 112.274L142.972 112.693L143.222 112.532L142.951 112.112ZM142.701 112.274L142.251 112.055C141.91 112.757 141.735 113.527 141.74 114.306L142.24 114.304L142.74 114.301C142.736 113.675 142.877 113.056 143.15 112.492L142.701 112.274ZM146.913 220.215L147.224 220.606L169.237 203.09L168.926 202.699L168.614 202.308L146.601 219.824L146.913 220.215ZM168.926 202.699L168.753 203.168C168.782 203.179 169.018 203.269 169.245 203.102C169.484 202.926 169.454 202.66 169.45 202.624C169.436 202.501 169.38 202.39 169.359 202.35C169.297 202.228 169.192 202.061 169.066 201.871C168.807 201.482 168.404 200.92 167.909 200.248C166.916 198.9 165.532 197.082 164.129 195.26C162.726 193.437 161.301 191.607 160.228 190.232C159.692 189.545 159.243 188.972 158.928 188.57C158.771 188.369 158.647 188.211 158.562 188.104C158.52 188.05 158.488 188.009 158.466 187.981C158.455 187.967 158.447 187.956 158.441 187.949C158.438 187.946 158.436 187.943 158.435 187.941C158.434 187.94 158.434 187.94 158.433 187.939C158.433 187.939 158.433 187.939 158.433 187.939C158.433 187.939 158.433 187.939 158.04 188.248C157.646 188.557 157.647 188.557 157.647 188.557C157.647 188.557 157.647 188.557 157.647 188.557C157.647 188.558 157.648 188.558 157.649 188.559C157.65 188.561 157.652 188.564 157.655 188.567C157.66 188.574 157.669 188.585 157.679 188.599C157.701 188.626 157.734 188.668 157.776 188.721C157.86 188.829 157.984 188.986 158.141 189.187C158.456 189.588 158.904 190.161 159.44 190.848C160.512 192.221 161.935 194.05 163.337 195.87C164.739 197.691 166.118 199.502 167.104 200.841C167.598 201.512 167.988 202.058 168.233 202.426C168.359 202.614 168.434 202.738 168.468 202.804C168.495 202.858 168.465 202.816 168.456 202.734C168.455 202.718 168.422 202.466 168.651 202.297C168.869 202.137 169.09 202.227 169.098 202.23L168.926 202.699ZM158.04 188.248L157.567 188.083L146.441 220.051L146.913 220.215L147.385 220.379L158.512 188.412L158.04 188.248ZM146.913 220.215L147.128 219.764L123.389 208.417L123.174 208.868L122.958 209.319L146.697 220.666L146.913 220.215ZM123.174 208.868L123.582 209.156L142.648 182.186L142.24 181.897L141.831 181.609L122.765 208.579L123.174 208.868ZM168.926 202.699L168.434 202.607L165.154 220.128L165.645 220.22L166.137 220.312L169.417 202.791L168.926 202.699ZM158.04 188.248L158.19 188.724L167.982 185.645L167.832 185.168L167.682 184.691L157.89 187.771L158.04 188.248ZM187.129 114.75L187.208 114.256L184.06 113.751L183.98 114.245L183.901 114.739L187.049 115.244L187.129 114.75ZM183.98 114.245L183.551 113.989L176.014 126.656L176.443 126.911L176.873 127.167L184.41 114.501L183.98 114.245ZM176.443 126.911L176.042 127.21L180.485 133.183L180.886 132.884L181.287 132.586L176.844 126.613L176.443 126.911ZM180.886 132.884L180.502 132.564L174.745 139.473L175.129 139.794L175.513 140.114L181.27 133.204L180.886 132.884ZM183.98 114.245L183.482 114.291L185.164 132.66L185.662 132.614L186.16 132.569L184.478 114.199L183.98 114.245ZM180.886 132.884L180.533 133.238L184.456 137.161L184.809 136.807L185.163 136.454L181.24 132.531L180.886 132.884ZM184.809 136.807C184.425 136.487 184.425 136.487 184.425 136.487C184.425 136.487 184.425 136.487 184.424 136.488C184.424 136.488 184.424 136.489 184.423 136.49C184.421 136.491 184.419 136.494 184.417 136.497C184.411 136.504 184.403 136.514 184.392 136.527C184.37 136.553 184.337 136.593 184.295 136.644C184.21 136.746 184.085 136.895 183.927 137.086C183.611 137.466 183.159 138.01 182.619 138.663C181.539 139.967 180.104 141.707 178.685 143.447C177.266 145.186 175.861 146.927 174.843 148.234C174.334 148.886 173.917 149.435 173.642 149.824C173.507 150.015 173.396 150.182 173.325 150.307C173.296 150.36 173.249 150.446 173.225 150.538C173.217 150.567 173.18 150.703 173.234 150.859C173.268 150.956 173.337 151.06 173.454 151.131C173.564 151.197 173.672 151.207 173.741 151.204L173.722 150.704L173.703 150.205C173.763 150.202 173.865 150.211 173.969 150.274C174.081 150.341 174.147 150.441 174.179 150.531C174.229 150.675 174.192 150.791 174.191 150.795C174.181 150.835 174.17 150.844 174.197 150.797C174.24 150.72 174.326 150.589 174.458 150.402C174.719 150.033 175.124 149.499 175.631 148.849C176.643 147.551 178.042 145.817 179.46 144.079C180.877 142.342 182.31 140.604 183.389 139.3C183.929 138.648 184.38 138.105 184.696 137.725C184.854 137.535 184.978 137.385 185.063 137.283C185.106 137.232 185.138 137.193 185.16 137.167C185.171 137.154 185.179 137.144 185.185 137.137C185.188 137.134 185.19 137.132 185.191 137.13C185.192 137.129 185.192 137.128 185.193 137.128C185.193 137.128 185.193 137.128 185.193 137.127C185.193 137.127 185.193 137.127 184.809 136.807ZM173.722 150.704L173.608 150.218L148.495 156.102L148.61 156.589L148.724 157.076L173.836 151.191L173.722 150.704ZM148.61 156.589L148.123 156.472L144.877 169.947L145.363 170.064L145.849 170.182L149.096 156.706L148.61 156.589ZM145.363 170.064L145.834 169.897L138.641 149.635L138.169 149.802L137.698 149.969L144.892 170.232L145.363 170.064ZM116.152 127.716V128.216H130.167V127.716V127.216H116.152V127.716Z" fill="#1C71EC"/>
<path opacity="0.5" d="M123.159 215.895C127.037 215.895 130.181 212.751 130.181 208.873C130.181 204.995 127.037 201.851 123.159 201.851C119.281 201.851 116.137 204.995 116.137 208.873C116.137 212.751 119.281 215.895 123.159 215.895Z" fill="url(#paint0_radial_1_428)"/>
<path opacity="0.5" d="M123.159 62.6281C127.037 62.6281 130.181 59.4842 130.181 55.6059C130.181 51.7277 127.037 48.5837 123.159 48.5837C119.281 48.5837 116.137 51.7277 116.137 55.6059C116.137 59.4842 119.281 62.6281 123.159 62.6281Z" fill="url(#paint1_radial_1_428)"/>
<path opacity="0.5" d="M111.988 79.0409C115.866 79.0409 119.01 75.897 119.01 72.0188C119.01 68.1405 115.866 64.9966 111.988 64.9966C108.11 64.9966 104.966 68.1405 104.966 72.0188C104.966 75.897 108.11 79.0409 111.988 79.0409Z" fill="url(#paint2_radial_1_428)"/>
<path opacity="0.5" d="M109.408 55.0689C112.517 52.7512 113.159 48.3516 110.841 45.2421C108.524 42.1326 104.124 41.4908 101.015 43.8085C97.9051 46.1262 97.2633 50.5259 99.581 53.6353C101.899 56.7448 106.298 57.3866 109.408 55.0689Z" fill="url(#paint3_radial_1_428)"/>
<path opacity="0.5" d="M104.288 78.015C107.03 75.2727 107.03 70.8265 104.288 68.0841C101.545 65.3418 97.0992 65.3418 94.3569 68.0841C91.6146 70.8265 91.6146 75.2727 94.3569 78.015C97.0992 80.7573 101.545 80.7573 104.288 78.015Z" fill="url(#paint4_radial_1_428)"/>
<path opacity="0.5" d="M68.6636 120.576C72.5419 120.576 75.6858 117.432 75.6858 113.553C75.6858 109.675 72.5419 106.531 68.6636 106.531C64.7854 106.531 61.6415 109.675 61.6415 113.553C61.6415 117.432 64.7854 120.576 68.6636 120.576Z" fill="url(#paint5_radial_1_428)"/>
<path opacity="0.5" d="M72.2767 134.486C73.1623 130.71 70.8193 126.931 67.0436 126.046C63.2678 125.16 59.489 127.503 58.6034 131.279C57.7178 135.055 60.0607 138.833 63.8365 139.719C67.6123 140.605 71.3911 138.262 72.2767 134.486Z" fill="url(#paint6_radial_1_428)"/>
<path opacity="0.5" d="M82.3382 207.665C85.0805 204.923 85.0805 200.476 82.3382 197.734C79.5958 194.992 75.1497 194.992 72.4073 197.734C69.665 200.476 69.665 204.923 72.4073 207.665C75.1497 210.407 79.5959 210.407 82.3382 207.665Z" fill="url(#paint7_radial_1_428)"/>
<path opacity="0.5" d="M123.001 129.138C123.786 125.34 121.344 121.625 117.546 120.84C113.748 120.055 110.033 122.497 109.248 126.295C108.463 130.093 110.905 133.808 114.703 134.593C118.501 135.379 122.216 132.936 123.001 129.138Z" fill="url(#paint8_radial_1_428)"/>
<path opacity="0.5" d="M79.4251 152.345C80.3219 148.572 77.9902 144.786 74.217 143.889C70.4439 142.992 66.6582 145.324 65.7614 149.097C64.8646 152.87 67.1963 156.656 70.9694 157.553C74.7426 158.45 78.5283 156.118 79.4251 152.345Z" fill="url(#paint9_radial_1_428)"/>
<path opacity="0.5" d="M113.783 150.444C116.11 147.342 115.481 142.94 112.378 140.613C109.276 138.286 104.874 138.915 102.547 142.018C100.22 145.12 100.849 149.522 103.952 151.849C107.054 154.176 111.456 153.547 113.783 150.444Z" fill="url(#paint10_radial_1_428)"/>
<path opacity="0.5" d="M69.5594 79.5196C73.1369 78.0224 74.8233 73.9084 73.3261 70.3308C71.8288 66.7533 67.7149 65.0669 64.1373 66.5641C60.5597 68.0614 58.8733 72.1753 60.3706 75.7529C61.8678 79.3305 65.9818 81.0169 69.5594 79.5196Z" fill="url(#paint11_radial_1_428)"/>
<path opacity="0.5" d="M109.541 186.663C112.162 183.804 111.969 179.362 109.111 176.741C106.253 174.12 101.811 174.313 99.1895 177.171C96.5684 180.029 96.7608 184.472 99.6192 187.093C102.478 189.714 106.92 189.521 109.541 186.663Z" fill="url(#paint12_radial_1_428)"/>
<path opacity="0.5" d="M95.9602 99.3127C96.7746 95.512 94.3538 91.7707 90.5531 90.9563C86.7524 90.1419 83.0111 92.5627 82.1967 96.3634C81.3823 100.164 83.8031 103.905 87.6038 104.72C91.4044 105.534 95.1457 103.113 95.9602 99.3127Z" fill="url(#paint13_radial_1_428)"/>
<path opacity="0.5" d="M134.325 79.0409C138.203 79.0409 141.347 75.897 141.347 72.0188C141.347 68.1405 138.203 64.9966 134.325 64.9966C130.447 64.9966 127.303 68.1405 127.303 72.0188C127.303 75.897 130.447 79.0409 134.325 79.0409Z" fill="url(#paint14_radial_1_428)"/>
<path opacity="0.5" d="M142.238 56.3703C146.065 55.7462 148.662 52.1373 148.038 48.3096C147.414 44.4819 143.805 41.8849 139.978 42.5089C136.15 43.133 133.553 46.7419 134.177 50.5696C134.801 54.3973 138.41 56.9943 142.238 56.3703Z" fill="url(#paint15_radial_1_428)"/>
<path opacity="0.5" d="M148.593 79.8835C152.369 78.9979 154.712 75.2191 153.826 71.4433C152.941 67.6676 149.162 65.3246 145.386 66.2102C141.611 67.0958 139.268 70.8746 140.153 74.6504C141.039 78.4261 144.818 80.7691 148.593 79.8835Z" fill="url(#paint16_radial_1_428)"/>
<path opacity="0.5" d="M177.649 120.576C181.528 120.576 184.672 117.432 184.672 113.553C184.672 109.675 181.528 106.531 177.649 106.531C173.771 106.531 170.627 109.675 170.627 113.553C170.627 117.432 173.771 120.576 177.649 120.576Z" fill="url(#paint17_radial_1_428)"/>
<path opacity="0.5" d="M187.358 135.597C188.855 132.019 187.169 127.905 183.591 126.408C180.014 124.911 175.9 126.597 174.402 130.175C172.905 133.752 174.592 137.866 178.169 139.364C181.747 140.861 185.861 139.174 187.358 135.597Z" fill="url(#paint18_radial_1_428)"/>
<path opacity="0.5" d="M170.544 209.54C174.32 208.655 176.663 204.876 175.777 201.1C174.892 197.324 171.113 194.981 167.337 195.867C163.561 196.753 161.218 200.531 162.104 204.307C162.989 208.083 166.768 210.426 170.544 209.54Z" fill="url(#paint19_radial_1_428)"/>
<path opacity="0.5" d="M136.669 130.432C138.167 126.854 136.48 122.74 132.903 121.243C129.325 119.746 125.211 121.432 123.714 125.01C122.217 128.587 123.903 132.701 127.481 134.199C131.058 135.696 135.172 134.009 136.669 130.432Z" fill="url(#paint20_radial_1_428)"/>
<path opacity="0.5" d="M178.689 155.68C181.432 152.938 181.432 148.492 178.689 145.749C175.947 143.007 171.501 143.007 168.758 145.749C166.016 148.492 166.016 152.938 168.758 155.68C171.501 158.423 175.947 158.423 178.689 155.68Z" fill="url(#paint21_radial_1_428)"/>
<path opacity="0.5" d="M139.778 152.185C143.554 151.299 145.897 147.52 145.011 143.744C144.125 139.969 140.347 137.626 136.571 138.511C132.795 139.397 130.452 143.176 131.338 146.951C132.223 150.727 136.002 153.07 139.778 152.185Z" fill="url(#paint22_radial_1_428)"/>
<path opacity="0.5" d="M185.298 76.9756C187.465 73.7589 186.613 69.3949 183.397 67.2285C180.18 65.0621 175.816 65.9135 173.649 69.1302C171.483 72.3469 172.334 76.7108 175.551 78.8773C178.768 81.0437 183.132 80.1923 185.298 76.9756Z" fill="url(#paint23_radial_1_428)"/>
<path opacity="0.5" d="M143.078 188.833C146.906 188.209 149.503 184.6 148.879 180.772C148.255 176.944 144.646 174.347 140.818 174.971C136.99 175.595 134.393 179.204 135.017 183.032C135.641 186.86 139.25 189.457 143.078 188.833Z" fill="url(#paint24_radial_1_428)"/>
<path opacity="0.5" d="M162.088 103.503C164.83 100.76 164.83 96.3142 162.088 93.5719C159.345 90.8296 154.899 90.8296 152.157 93.5719C149.415 96.3143 149.415 100.76 152.157 103.503C154.899 106.245 159.345 106.245 162.088 103.503Z" fill="url(#paint25_radial_1_428)"/>
</g>
<rect x="1" y="127" width="246" height="61" fill="url(#paint26_linear_1_428)"/>
<line opacity="0.5" x1="1" y1="126.5" x2="247" y2="126.5" stroke="#FF1818"/>
<defs>
<radialGradient id="paint0_radial_1_428" cx="0" cy="0" r="1" gradientUnits="userSpaceOnUse" gradientTransform="translate(123.159 208.873) rotate(90) scale(7.02217)">
<stop stop-color="#2667FF"/>
<stop offset="1" stop-color="#2667FF" stop-opacity="0"/>
</radialGradient>
<radialGradient id="paint1_radial_1_428" cx="0" cy="0" r="1" gradientUnits="userSpaceOnUse" gradientTransform="translate(123.159 55.6059) rotate(90) scale(7.02218 7.02217)">
<stop stop-color="#2667FF"/>
<stop offset="1" stop-color="#2667FF" stop-opacity="0"/>
</radialGradient>
<radialGradient id="paint2_radial_1_428" cx="0" cy="0" r="1" gradientUnits="userSpaceOnUse" gradientTransform="translate(111.988 72.0188) rotate(90) scale(7.02218 7.02217)">
<stop stop-color="#2667FF"/>
<stop offset="1" stop-color="#2667FF" stop-opacity="0"/>
</radialGradient>
<radialGradient id="paint3_radial_1_428" cx="0" cy="0" r="1" gradientUnits="userSpaceOnUse" gradientTransform="translate(105.211 49.4387) rotate(53.3) scale(7.02217)">
<stop stop-color="#2667FF"/>
<stop offset="1" stop-color="#2667FF" stop-opacity="0"/>
</radialGradient>
<radialGradient id="paint4_radial_1_428" cx="0" cy="0" r="1" gradientUnits="userSpaceOnUse" gradientTransform="translate(99.3223 73.0496) rotate(45) scale(7.02217)">
<stop stop-color="#2667FF"/>
<stop offset="1" stop-color="#2667FF" stop-opacity="0"/>
</radialGradient>
<radialGradient id="paint5_radial_1_428" cx="0" cy="0" r="1" gradientUnits="userSpaceOnUse" gradientTransform="translate(68.6637 113.553) rotate(90) scale(7.02217)">
<stop stop-color="#2667FF"/>
<stop offset="1" stop-color="#2667FF" stop-opacity="0"/>
</radialGradient>
<radialGradient id="paint6_radial_1_428" cx="0" cy="0" r="1" gradientUnits="userSpaceOnUse" gradientTransform="translate(65.44 132.882) rotate(13.2) scale(7.02218 7.02217)">
<stop stop-color="#2667FF"/>
<stop offset="1" stop-color="#2667FF" stop-opacity="0"/>
</radialGradient>
<radialGradient id="paint7_radial_1_428" cx="0" cy="0" r="1" gradientUnits="userSpaceOnUse" gradientTransform="translate(77.3727 202.699) rotate(45) scale(7.02218 7.02217)">
<stop stop-color="#2667FF"/>
<stop offset="1" stop-color="#2667FF" stop-opacity="0"/>
</radialGradient>
<radialGradient id="paint8_radial_1_428" cx="0" cy="0" r="1" gradientUnits="userSpaceOnUse" gradientTransform="translate(116.124 127.717) rotate(11.68) scale(7.02217)">
<stop stop-color="#2667FF"/>
<stop offset="1" stop-color="#2667FF" stop-opacity="0"/>
</radialGradient>
<radialGradient id="paint9_radial_1_428" cx="0" cy="0" r="1" gradientUnits="userSpaceOnUse" gradientTransform="translate(72.5932 150.721) rotate(13.37) scale(7.02217 7.02217)">
<stop stop-color="#2667FF"/>
<stop offset="1" stop-color="#2667FF" stop-opacity="0"/>
</radialGradient>
<radialGradient id="paint10_radial_1_428" cx="0" cy="0" r="1" gradientUnits="userSpaceOnUse" gradientTransform="translate(108.165 146.231) rotate(36.8699) scale(7.02218 7.02217)">
<stop stop-color="#2667FF"/>
<stop offset="1" stop-color="#2667FF" stop-opacity="0"/>
</radialGradient>
<radialGradient id="paint11_radial_1_428" cx="0" cy="0" r="1" gradientUnits="userSpaceOnUse" gradientTransform="translate(66.8483 73.0419) rotate(67.29) scale(7.02217 7.02218)">
<stop stop-color="#2667FF"/>
<stop offset="1" stop-color="#2667FF" stop-opacity="0"/>
</radialGradient>
<radialGradient id="paint12_radial_1_428" cx="0" cy="0" r="1" gradientUnits="userSpaceOnUse" gradientTransform="translate(104.365 181.917) rotate(42.52) scale(7.02218 7.02217)">
<stop stop-color="#2667FF"/>
<stop offset="1" stop-color="#2667FF" stop-opacity="0"/>
</radialGradient>
<radialGradient id="paint13_radial_1_428" cx="0" cy="0" r="1" gradientUnits="userSpaceOnUse" gradientTransform="translate(89.0784 97.838) rotate(12.0948) scale(7.03796)">
<stop stop-color="#2667FF"/>
<stop offset="1" stop-color="#2667FF" stop-opacity="0"/>
</radialGradient>
<radialGradient id="paint14_radial_1_428" cx="0" cy="0" r="1" gradientUnits="userSpaceOnUse" gradientTransform="translate(134.325 72.0188) rotate(90) scale(7.02218 7.02218)">
<stop stop-color="#2667FF"/>
<stop offset="1" stop-color="#2667FF" stop-opacity="0"/>
</radialGradient>
<radialGradient id="paint15_radial_1_428" cx="0" cy="0" r="1" gradientUnits="userSpaceOnUse" gradientTransform="translate(141.108 49.4396) rotate(80.74) scale(7.02217 7.02217)">
<stop stop-color="#2667FF"/>
<stop offset="1" stop-color="#2667FF" stop-opacity="0"/>
</radialGradient>
<radialGradient id="paint16_radial_1_428" cx="0" cy="0" r="1" gradientUnits="userSpaceOnUse" gradientTransform="translate(146.99 73.0468) rotate(76.8) scale(7.02217 7.02217)">
<stop stop-color="#2667FF"/>
<stop offset="1" stop-color="#2667FF" stop-opacity="0"/>
</radialGradient>
<radialGradient id="paint17_radial_1_428" cx="0" cy="0" r="1" gradientUnits="userSpaceOnUse" gradientTransform="translate(177.649 113.553) rotate(90) scale(7.02217 7.02217)">
<stop stop-color="#2667FF"/>
<stop offset="1" stop-color="#2667FF" stop-opacity="0"/>
</radialGradient>
<radialGradient id="paint18_radial_1_428" cx="0" cy="0" r="1" gradientUnits="userSpaceOnUse" gradientTransform="translate(180.88 132.886) rotate(22.71) scale(7.02218)">
<stop stop-color="#2667FF"/>
<stop offset="1" stop-color="#2667FF" stop-opacity="0"/>
</radialGradient>
<radialGradient id="paint19_radial_1_428" cx="0" cy="0" r="1" gradientUnits="userSpaceOnUse" gradientTransform="translate(168.941 202.704) rotate(76.8) scale(7.02218)">
<stop stop-color="#2667FF"/>
<stop offset="1" stop-color="#2667FF" stop-opacity="0"/>
</radialGradient>
<radialGradient id="paint20_radial_1_428" cx="0" cy="0" r="1" gradientUnits="userSpaceOnUse" gradientTransform="translate(130.192 127.721) rotate(22.71) scale(7.02217 7.02217)">
<stop stop-color="#2667FF"/>
<stop offset="1" stop-color="#2667FF" stop-opacity="0"/>
</radialGradient>
<radialGradient id="paint21_radial_1_428" cx="0" cy="0" r="1" gradientUnits="userSpaceOnUse" gradientTransform="translate(173.724 150.715) rotate(45) scale(7.02217 7.02218)">
<stop stop-color="#2667FF"/>
<stop offset="1" stop-color="#2667FF" stop-opacity="0"/>
</radialGradient>
<radialGradient id="paint22_radial_1_428" cx="0" cy="0" r="1" gradientUnits="userSpaceOnUse" gradientTransform="translate(138.174 145.348) rotate(76.8) scale(7.02218 7.02217)">
<stop stop-color="#2667FF"/>
<stop offset="1" stop-color="#2667FF" stop-opacity="0"/>
</radialGradient>
<radialGradient id="paint23_radial_1_428" cx="0" cy="0" r="1" gradientUnits="userSpaceOnUse" gradientTransform="translate(179.474 73.0529) rotate(33.96) scale(7.02217 7.02218)">
<stop stop-color="#2667FF"/>
<stop offset="1" stop-color="#2667FF" stop-opacity="0"/>
</radialGradient>
<radialGradient id="paint24_radial_1_428" cx="0" cy="0" r="1" gradientUnits="userSpaceOnUse" gradientTransform="translate(141.948 181.902) rotate(80.74) scale(7.02218 7.02217)">
<stop stop-color="#2667FF"/>
<stop offset="1" stop-color="#2667FF" stop-opacity="0"/>
</radialGradient>
<radialGradient id="paint25_radial_1_428" cx="0" cy="0" r="1" gradientUnits="userSpaceOnUse" gradientTransform="translate(157.122 98.5374) rotate(45) scale(7.02217 7.02218)">
<stop stop-color="#2667FF"/>
<stop offset="1" stop-color="#2667FF" stop-opacity="0"/>
</radialGradient>
<linearGradient id="paint26_linear_1_428" x1="124" y1="127" x2="124" y2="188" gradientUnits="userSpaceOnUse">
<stop stop-color="#FF1818" stop-opacity="0.05"/>
<stop offset="1" stop-color="#FF1818" stop-opacity="0"/>
</linearGradient>
</defs>
</svg>
