<svg width="116" height="116" viewBox="0 0 116 116" fill="none" xmlns="http://www.w3.org/2000/svg">
<circle cx="58" cy="58" r="56.5" stroke="url(#paint0_linear_1_652)" stroke-width="3"/>
<circle cx="58" cy="58" r="50" fill="#2667FF"/>
<path d="M74.1966 36.8611C73.9698 36.8619 73.7465 36.8038 73.5488 36.6926C68.1395 33.9134 63.4629 32.7344 57.8283 32.7344C52.2783 32.7344 46.982 34.0538 42.1643 36.6926C41.4884 37.0576 40.6433 36.8049 40.2488 36.1312C39.8824 35.4574 40.1358 34.5872 40.8121 34.2222C46.0523 31.3307 51.7996 29.9271 57.8283 29.9271C63.8574 29.9271 69.0976 31.2465 74.8445 34.138C75.5489 34.5591 75.8026 35.4013 75.4362 36.075C75.1828 36.5803 74.7318 36.8611 74.1966 36.8611ZM33.8817 51.5994C33.5905 51.5978 33.3063 51.5099 33.0651 51.3467C32.473 50.8975 32.2758 50.0273 32.7267 49.3816C35.5158 45.4514 39.0654 42.3634 43.2913 40.2017C52.194 35.6539 63.4629 35.6259 72.3373 40.1737C76.5632 42.3353 80.1127 45.3672 82.9018 49.2974C83.3528 49.915 83.1836 50.8133 82.5638 51.2625C81.916 51.7116 81.0424 51.5713 80.5918 50.9817C78.0561 47.3884 74.8445 44.6092 71.0412 42.6722C62.9558 38.5454 52.6166 38.5454 44.5593 42.7002C40.7275 44.6653 37.5159 47.4726 34.9806 50.9817C34.7553 51.4028 34.3324 51.5994 33.8817 51.5994ZM51.4897 85.4834C51.1233 85.4834 50.7853 85.343 50.5035 85.0623C48.0527 82.6199 46.7286 81.0478 44.8408 77.651C42.8968 74.198 41.8829 69.9871 41.8829 65.4674C41.8829 57.1297 49.0386 50.3361 57.8283 50.3361C66.6184 50.3361 73.7741 57.1297 73.7741 65.4674C73.7741 65.8396 73.6257 66.1965 73.3614 66.4598C73.0969 66.7234 72.7387 66.8714 72.3653 66.8714C71.9919 66.8714 71.6338 66.7234 71.3693 66.4598C71.2387 66.3296 71.135 66.175 71.0642 66.0047C70.9935 65.8344 70.957 65.6518 70.957 65.4674C70.957 58.6737 65.0689 53.1434 57.8283 53.1434C50.588 53.1434 44.6997 58.6737 44.6997 65.4674C44.6997 69.5099 45.6016 73.2436 47.3199 76.2474C49.1232 79.5038 50.3627 80.8794 52.532 83.0691C52.7896 83.3369 52.9335 83.6941 52.9335 84.0657C52.9335 84.4373 52.7896 84.7945 52.532 85.0623C52.194 85.343 51.8561 85.4834 51.4897 85.4834ZM71.6894 80.2899C68.3367 80.2899 65.3788 79.4477 62.9558 77.7914C58.758 74.956 56.2508 70.3521 56.2508 65.4674C56.2508 65.0951 56.3991 64.7382 56.6635 64.475C56.928 64.2115 57.2861 64.0635 57.6595 64.0635C58.0329 64.0635 58.391 64.2115 58.6555 64.475C58.7862 64.6051 58.8899 64.7598 58.9606 64.9301C59.0314 65.1004 59.0679 65.283 59.0679 65.4674C59.0679 69.4257 61.0964 73.1594 64.5334 75.4613C66.5338 76.8088 68.8719 77.4545 71.6894 77.4545C72.3653 77.4545 73.4923 77.3703 74.6192 77.1738C75.3801 77.0334 76.1406 77.5387 76.2533 78.3248C76.394 79.0547 75.8868 79.8126 75.0983 79.953C73.4923 80.2618 72.0839 80.2899 71.6894 80.2899ZM66.0267 86.0729H65.6603C61.181 84.7815 58.2509 83.1252 55.1803 80.1214C51.2359 76.2474 49.0666 71.0258 49.0666 65.4674C49.0666 60.9196 52.9546 57.2139 57.7437 57.2139C62.5333 57.2139 66.4212 60.9196 66.4212 65.4674C66.4212 68.4712 69.0976 70.9135 72.2808 70.9135C75.5208 70.9135 78.1407 68.4712 78.1407 65.4674C78.1407 54.8839 68.9846 46.2936 57.7157 46.2936C49.7149 46.2936 42.3335 50.7291 39.0938 57.607C37.995 59.8809 37.4313 62.5478 37.4313 65.4674C37.4313 67.6571 37.6286 71.11 39.3191 75.6017C39.601 76.3316 39.2346 77.1457 38.5021 77.3984C37.7693 77.651 36.9526 77.2861 36.6989 76.5842C35.2905 72.9067 34.6426 69.2291 34.6426 65.4674C34.6426 62.0986 35.2905 59.0387 36.5582 56.3717C40.305 48.5394 48.616 43.4582 57.7157 43.4582C70.506 43.4582 80.9582 53.3118 80.9582 65.4393C80.9582 69.9871 77.0703 73.6927 72.2808 73.6927C67.4916 73.6927 63.6037 69.9871 63.6037 65.4393C63.6037 62.4355 60.9838 59.9932 57.7437 59.9932C54.504 59.9932 51.8841 62.4355 51.8841 65.4393C51.8841 70.2398 53.7435 74.7314 57.1524 78.1002C59.8288 80.739 62.3925 82.1988 66.3647 83.2656C67.1252 83.4902 67.5481 84.2762 67.3509 85.0061C67.2098 85.6518 66.6184 86.0729 66.0267 86.0729Z" fill="white"/>
<defs>
<linearGradient id="paint0_linear_1_652" x1="58" y1="0" x2="58" y2="116" gradientUnits="userSpaceOnUse">
<stop stop-color="#2667FF" stop-opacity="0.25"/>
<stop offset="1" stop-color="#2667FF" stop-opacity="0"/>
</linearGradient>
</defs>
</svg>
