<svg width="40" height="40" viewBox="0 0 40 40" fill="none" xmlns="http://www.w3.org/2000/svg">
<path opacity="0.4" d="M31.6663 16.5V23.5C31.6663 27.5833 29.333 29.3333 25.833 29.3333H17.363C17.5613 28.785 17.6663 28.2016 17.6663 27.5833C17.6663 24.69 15.3213 22.3333 12.4163 22.3333C10.7713 22.3333 9.28967 23.1033 8.33301 24.2933V16.5C8.33301 12.4166 10.6663 10.6666 14.1663 10.6666H25.833C29.333 10.6666 31.6663 12.4166 31.6663 16.5Z" fill="#848588"/>
<path d="M19.9997 22.9167C21.6105 22.9167 22.9163 21.6109 22.9163 20C22.9163 18.3892 21.6105 17.0834 19.9997 17.0834C18.3889 17.0834 17.083 18.3892 17.083 20C17.083 21.6109 18.3889 22.9167 19.9997 22.9167Z" fill="#848588"/>
<path d="M27.583 23.2083C27.1047 23.2083 26.708 22.8116 26.708 22.3333V17.6666C26.708 17.1883 27.1047 16.7916 27.583 16.7916C28.0613 16.7916 28.458 17.1883 28.458 17.6666V22.3333C28.458 22.8116 28.0613 23.2083 27.583 23.2083Z" fill="#848588"/>
<path d="M12.417 22.3334C10.772 22.3334 9.29033 23.1034 8.33366 24.2934C7.59866 25.1917 7.16699 26.335 7.16699 27.5834C7.16699 30.4884 9.52366 32.8334 12.417 32.8334C14.7037 32.8334 16.652 31.375 17.3636 29.3334C17.562 28.785 17.667 28.2017 17.667 27.5834C17.667 24.69 15.322 22.3334 12.417 22.3334ZM15.5203 29.87C15.4853 29.94 15.4386 30.0217 15.3803 30.08L14.4353 31.0134C14.3186 31.1417 14.1553 31.2 13.992 31.2C13.817 31.2 13.6537 31.1417 13.537 31.0134C13.327 30.815 13.3036 30.5 13.432 30.2667H10.7953C9.95531 30.2667 9.26698 29.5784 9.26698 28.7267V28.5984C9.26698 28.2367 9.55864 27.9567 9.90864 27.9567C10.2586 27.9567 10.5503 28.2367 10.5503 28.5984V28.7267C10.5503 28.8667 10.6553 28.9834 10.7953 28.9834H13.432C13.3036 28.7384 13.327 28.435 13.537 28.225C13.782 27.98 14.1903 27.98 14.4353 28.225L15.3803 29.17C15.4386 29.2284 15.4853 29.2984 15.5203 29.38C15.5786 29.5317 15.5786 29.7067 15.5203 29.87ZM15.567 26.5684C15.567 26.93 15.2753 27.21 14.9253 27.21C14.5753 27.21 14.2836 26.93 14.2836 26.5684V26.44C14.2836 26.3 14.1787 26.1834 14.0387 26.1834H11.402C11.5303 26.4284 11.507 26.7317 11.297 26.9417C11.1803 27.0584 11.017 27.1284 10.842 27.1284C10.6787 27.1284 10.5153 27.0584 10.3987 26.9417L9.45368 25.9967C9.39535 25.9384 9.34869 25.8684 9.31369 25.7867C9.25536 25.635 9.25536 25.46 9.31369 25.2967C9.34869 25.2267 9.39535 25.145 9.45368 25.0867L10.3987 24.1534C10.6437 23.8967 11.052 23.8967 11.297 24.1534C11.507 24.3517 11.5303 24.6667 11.402 24.9H14.0387C14.8787 24.9 15.567 25.5884 15.567 26.44V26.5684Z" fill="#848588"/>
</svg>
