<svg width="30" height="30" viewBox="0 0 30 30" fill="none" xmlns="http://www.w3.org/2000/svg">
<path d="M12.5 18.75V21.25C12.5 21.5815 12.3683 21.8995 12.1339 22.1339C11.8995 22.3683 11.5815 22.5 11.25 22.5H8.75C8.41848 22.5 8.10054 22.3683 7.86612 22.1339C7.6317 21.8995 7.5 21.5815 7.5 21.25V18.75C7.5 18.4185 7.6317 18.1005 7.86612 17.8661C8.10054 17.6317 8.41848 17.5 8.75 17.5H11.25C11.5815 17.5 11.8995 17.6317 12.1339 17.8661C12.3683 18.1005 12.5 18.4185 12.5 18.75ZM21.25 7.5H18.75C18.4185 7.5 18.1005 7.6317 17.8661 7.86612C17.6317 8.10054 17.5 8.41848 17.5 8.75V11.25C17.5 11.5815 17.6317 11.8995 17.8661 12.1339C18.1005 12.3683 18.4185 12.5 18.75 12.5H21.25C21.5815 12.5 21.8995 12.3683 22.1339 12.1339C22.3683 11.8995 22.5 11.5815 22.5 11.25V8.75C22.5 8.41848 22.3683 8.10054 22.1339 7.86612C21.8995 7.6317 21.5815 7.5 21.25 7.5ZM21.25 15H16.25C15.9185 15 15.6005 15.1317 15.3661 15.3661C15.1317 15.6005 15 15.9185 15 16.25V21.25C15 21.5815 15.1317 21.8995 15.3661 22.1339C15.6005 22.3683 15.9185 22.5 16.25 22.5H21.25C21.5815 22.5 21.8995 22.3683 22.1339 22.1339C22.3683 21.8995 22.5 21.5815 22.5 21.25V16.25C22.5 15.9185 22.3683 15.6005 22.1339 15.3661C21.8995 15.1317 21.5815 15 21.25 15ZM15 8.75C15 8.41848 14.8683 8.10054 14.6339 7.86612C14.3995 7.6317 14.0815 7.5 13.75 7.5H8.75C8.41848 7.5 8.10054 7.6317 7.86612 7.86612C7.6317 8.10054 7.5 8.41848 7.5 8.75V13.75C7.5 14.0815 7.6317 14.3995 7.86612 14.6339C8.10054 14.8683 8.41848 15 8.75 15H13.75C14.0815 15 14.3995 14.8683 14.6339 14.6339C14.8683 14.3995 15 14.0815 15 13.75V8.75Z" fill="#2667FF"/>
<path opacity="0.4" d="M3.75 11.25C3.41848 11.25 3.10054 11.1183 2.86612 10.8839C2.6317 10.6495 2.5 10.3315 2.5 10V5C2.5 4.33696 2.76339 3.70107 3.23223 3.23223C3.70107 2.76339 4.33696 2.5 5 2.5H10C10.3315 2.5 10.6495 2.6317 10.8839 2.86612C11.1183 3.10054 11.25 3.41848 11.25 3.75C11.25 4.08152 11.1183 4.39946 10.8839 4.63388C10.6495 4.8683 10.3315 5 10 5H5V10C5 10.3315 4.8683 10.6495 4.63388 10.8839C4.39946 11.1183 4.08152 11.25 3.75 11.25ZM27.5 10V5C27.5 4.33696 27.2366 3.70107 26.7678 3.23223C26.2989 2.76339 25.663 2.5 25 2.5H20C19.6685 2.5 19.3505 2.6317 19.1161 2.86612C18.8817 3.10054 18.75 3.41848 18.75 3.75C18.75 4.08152 18.8817 4.39946 19.1161 4.63388C19.3505 4.8683 19.6685 5 20 5H25V10C25 10.3315 25.1317 10.6495 25.3661 10.8839C25.6005 11.1183 25.9185 11.25 26.25 11.25C26.5815 11.25 26.8995 11.1183 27.1339 10.8839C27.3683 10.6495 27.5 10.3315 27.5 10ZM11.25 26.25C11.25 25.9185 11.1183 25.6005 10.8839 25.3661C10.6495 25.1317 10.3315 25 10 25H5V20C5 19.6685 4.8683 19.3505 4.63388 19.1161C4.39946 18.8817 4.08152 18.75 3.75 18.75C3.41848 18.75 3.10054 18.8817 2.86612 19.1161C2.6317 19.3505 2.5 19.6685 2.5 20V25C2.5 25.663 2.76339 26.2989 3.23223 26.7678C3.70107 27.2366 4.33696 27.5 5 27.5H10C10.3315 27.5 10.6495 27.3683 10.8839 27.1339C11.1183 26.8995 11.25 26.5815 11.25 26.25ZM27.5 25V20C27.5 19.6685 27.3683 19.3505 27.1339 19.1161C26.8995 18.8817 26.5815 18.75 26.25 18.75C25.9185 18.75 25.6005 18.8817 25.3661 19.1161C25.1317 19.3505 25 19.6685 25 20V25H20C19.6685 25 19.3505 25.1317 19.1161 25.3661C18.8817 25.6005 18.75 25.9185 18.75 26.25C18.75 26.5815 18.8817 26.8995 19.1161 27.1339C19.3505 27.3683 19.6685 27.5 20 27.5H25C25.663 27.5 26.2989 27.2366 26.7678 26.7678C27.2366 26.2989 27.5 25.663 27.5 25Z" fill="#2667FF"/>
</svg>
