<svg width="24" height="24" viewBox="0 0 24 24" fill="none" xmlns="http://www.w3.org/2000/svg">
<path opacity="0.4" d="M7.81021 2H16.1802C19.8202 2 21.9902 4.17 21.9902 7.81V16.18C21.9902 19.82 19.8202 21.99 16.1802 21.99H7.81021C4.17021 21.99 2.00021 19.82 2.00021 16.18V7.81C2.00021 4.17 4.17021 2 7.81021 2Z" fill="#2667FF"/>
<path d="M14.8284 6.91992C14.6384 6.91992 14.4484 6.98992 14.2984 7.13992L9.9184 11.5199V9.08992C9.9184 8.67992 9.5784 8.33992 9.1684 8.33992C8.7584 8.33992 8.4184 8.67992 8.4184 9.08992V13.3299C8.4184 13.4299 8.4384 13.5199 8.4784 13.6199C8.5584 13.7999 8.6984 13.9499 8.8884 14.0299C8.9784 14.0699 9.0784 14.0899 9.1784 14.0899H13.4184C13.8284 14.0899 14.1684 13.7499 14.1684 13.3399C14.1684 12.9299 13.8284 12.5899 13.4184 12.5899H10.9884L15.3684 8.20992C15.6584 7.91992 15.6584 7.43992 15.3684 7.14992C15.2084 6.98992 15.0184 6.91992 14.8284 6.91992Z" fill="#2667FF"/>
<path d="M5.2893 16.28C5.4193 15.89 5.8393 15.68 6.2393 15.81C9.9593 17.05 14.0493 17.05 17.7693 15.81C18.1593 15.68 18.5893 15.89 18.7193 16.28C18.8493 16.67 18.6393 17.1 18.2493 17.23C16.2393 17.9 14.1293 18.24 12.0093 18.24C9.8893 18.24 7.7793 17.9 5.7693 17.23C5.3693 17.09 5.1593 16.67 5.2893 16.28Z" fill="#2667FF"/>
</svg>
