<svg width="30" height="30" viewBox="0 0 30 30" fill="none" xmlns="http://www.w3.org/2000/svg">
<path opacity="0.4" d="M20.2377 2.5H9.77521C5.22521 2.5 2.5127 5.2125 2.5127 9.7625V20.225C2.5127 24.775 5.22521 27.4875 9.77521 27.4875H20.2377C24.7877 27.4875 27.5002 24.775 27.5002 20.225V9.7625C27.5002 5.2125 24.7877 2.5 20.2377 2.5Z" fill="#2667FF"/>
<path d="M11.4645 17.6124C11.702 17.6124 11.9394 17.5249 12.1269 17.3374L17.602 11.8624V14.8999C17.602 15.4124 18.027 15.8374 18.5395 15.8374C19.052 15.8374 19.477 15.4124 19.477 14.8999V9.5999C19.477 9.4749 19.452 9.3624 19.402 9.2374C19.302 9.0124 19.127 8.82491 18.8895 8.72491C18.777 8.67491 18.652 8.6499 18.527 8.6499H13.227C12.7145 8.6499 12.2895 9.0749 12.2895 9.5874C12.2895 10.0999 12.7145 10.5249 13.227 10.5249H16.2645L10.7895 15.9999C10.427 16.3624 10.427 16.9624 10.7895 17.3249C10.9895 17.5249 11.227 17.6124 11.4645 17.6124Z" fill="#2667FF"/>
<path d="M23.3884 20.35C23.2259 19.8625 22.7009 19.6 22.2009 19.7625C17.5509 21.3125 12.4383 21.3125 7.78832 19.7625C7.30082 19.6 6.76333 19.8625 6.60083 20.35C6.43833 20.8375 6.70083 21.375 7.18833 21.5375C9.70083 22.375 12.3383 22.8 14.9884 22.8C17.6384 22.8 20.2759 22.375 22.7884 21.5375C23.2884 21.3625 23.5509 20.8375 23.3884 20.35Z" fill="#2667FF"/>
</svg>
