<svg width="40" height="40" viewBox="0 0 40 40" fill="none" xmlns="http://www.w3.org/2000/svg">
<path d="M23.4997 13.1751H12.9997C10.4213 13.1751 8.33301 15.2635 8.33301 17.8417V13.6301C8.33301 11.2501 10.258 9.32507 12.638 9.32507H19.1947C21.5747 9.32507 23.4997 10.7951 23.4997 13.1751Z" fill="#2667FF"/>
<path opacity="0.4" d="M26.393 20.2333C25.8097 20.8049 25.5297 21.6683 25.763 22.5433C26.0547 23.6283 27.128 24.3166 28.248 24.3166H29.333V26.0083C29.333 28.5866 27.2447 30.6749 24.6663 30.6749H12.9997C10.4213 30.6749 8.33301 28.5866 8.33301 26.0083V17.8416C8.33301 15.2633 10.4213 13.1749 12.9997 13.1749H24.6663C27.233 13.1749 29.333 15.2749 29.333 17.8416V19.5333H28.073C27.4197 19.5333 26.8247 19.7899 26.393 20.2333Z" fill="#2667FF"/>
<path d="M31.6666 20.7234V23.1268C31.6666 23.7801 31.1299 24.3168 30.4649 24.3168H28.2133C26.9533 24.3168 25.7983 23.3951 25.6933 22.1351C25.6233 21.4001 25.9033 20.7118 26.3933 20.2334C26.8249 19.7901 27.4199 19.5334 28.0733 19.5334H30.4649C31.1299 19.5334 31.6666 20.0701 31.6666 20.7234Z" fill="#2667FF"/>
<path d="M21.167 19.8832H14.167C13.6887 19.8832 13.292 19.4865 13.292 19.0082C13.292 18.5298 13.6887 18.1332 14.167 18.1332H21.167C21.6453 18.1332 22.042 18.5298 22.042 19.0082C22.042 19.4865 21.6453 19.8832 21.167 19.8832Z" fill="#2667FF"/>
</svg>
